<svg width="22" height="22" viewBox="0 0 22 22" fill="none" xmlns="http://www.w3.org/2000/svg">
<path d="M16.5 9.03863C16.0118 9.03863 15.5399 9.10401 15.0924 9.21842C15.9711 8.23774 16.5 6.94651 16.5 5.52452C16.5 2.46805 14.0347 0 11 0C7.95709 0 5.49999 2.47623 5.49999 5.52452C5.49999 6.94651 6.03698 8.23774 6.91567 9.21842C6.46005 9.09584 5.98816 9.03046 5.49999 9.03046C2.4571 9.03046 0 11.5067 0 14.555C0 17.6114 2.46523 20.0795 5.49999 20.0795C7.64792 20.0795 9.51109 18.8455 10.4142 17.0394L9.12869 22H12.8713L11.5858 17.0475C12.4889 18.8536 14.3521 20.0877 16.5 20.0877C19.5429 20.0877 22 17.6114 22 14.5632C22.0081 11.5067 19.5429 9.03863 16.5 9.03863Z" fill="black"/>
</svg>
