<svg width="177" height="108" viewBox="0 0 177 108" fill="none" xmlns="http://www.w3.org/2000/svg">
<path d="M138.973 106.594C138.29 104.833 136.698 100.206 135.869 97.5728C134.914 94.5443 133.333 89.0264 133.338 88.7458C133.35 88.0965 133.805 89.4347 136.137 96.9954C137.569 101.638 139.152 106.444 139.592 107.489C139.65 107.627 139.634 107.73 139.554 107.73C139.476 107.73 139.215 107.219 138.973 106.594H138.973ZM101.548 105.16C101.537 103.673 102.552 98.8541 103.906 93.9676C104.603 91.4533 104.748 91.0777 105.019 91.0777C105.223 91.0777 105.097 91.7033 103.895 96.6973C103.299 99.1698 102.608 102.11 102.358 103.232C101.868 105.435 101.556 106.178 101.548 105.16V105.16ZM117.16 105.012C117.863 103.214 118.242 99.7946 118.093 96.5766L118.018 94.9485L115.733 94.1784C111.541 92.7653 110.384 92.0092 107.765 88.9666C106.395 87.3752 106.44 87.3674 105.853 89.289C105.419 90.7064 105.31 90.8517 105.11 90.278C105.026 90.0369 104.907 89.8393 104.845 89.8393C104.784 89.8393 104.457 90.2268 104.119 90.7002C102.883 92.4328 100.619 94.291 98.7123 95.1383C96.6216 96.0673 90.6719 96.996 90.6719 96.3932C90.6719 96.0284 91.0283 95.9289 92.5986 95.8555C96.4396 95.677 99.9963 94.2139 102.458 91.8016C103.779 90.5067 105.334 88.3956 105.88 87.1561C106.012 86.8572 106.067 78.1419 105.937 78.1419C105.894 78.1419 105.46 78.8648 104.974 79.7486C103.642 82.169 102.724 83.4809 101.131 85.2415C97.989 88.7134 95.188 90.7359 93.0097 91.1053C92.2501 91.2344 91.8293 91.2116 90.1902 90.9495C86.6584 90.3872 84.6248 89.9782 83.3418 89.5724C82.6427 89.351 81.0897 89.0073 79.8908 88.8082C77.2514 88.3701 76.2322 88.067 75.3273 87.451C74.5583 86.9274 73.5555 85.9916 73.6559 85.8911C73.6919 85.855 74.1782 86.1373 74.7366 86.5178C76.0914 87.4409 76.8871 87.7632 78.2118 87.9248C79.8766 88.1282 81.2256 88.3991 83.9088 89.0698C87.6996 90.0171 89.6259 90.3904 91.6001 90.5598L93.4229 90.7156L94.5776 90.1219C96.2747 89.2493 97.2744 88.4392 99.5606 86.0839C101.965 83.6068 102.823 82.4537 104.319 79.692C105.51 77.4924 106.698 75.4996 107.78 73.8858C109.467 71.3689 110.487 67.9595 110.489 64.8292C110.489 64.2114 110.538 64.0773 110.837 63.8815C111.029 63.7562 111.221 63.6884 111.264 63.7316C111.444 63.912 111.058 66.9526 110.752 67.7631C110.444 68.5785 110.442 68.619 110.669 69.2132C111.009 70.1048 114.738 75.0936 116.982 77.6609C118.199 79.0525 120.066 80.8271 120.481 80.9862C120.66 81.0546 123.335 79.1637 125.077 77.7385C126.288 76.7475 127.153 76.29 127.603 76.403C127.778 76.4466 128.597 76.8661 129.423 77.3346C130.249 77.8033 131.82 78.6229 132.913 79.1562C134.859 80.1051 134.928 80.1265 136.148 80.1789C137.013 80.2169 137.667 80.16 138.288 80.0043C139.649 79.6566 143.024 78.5128 143.127 78.3641C143.177 78.2919 143.164 78.0916 143.099 77.9194C143.033 77.7465 142.696 76.2245 142.35 74.5361C141.346 69.6446 141.155 69.0461 139.663 66.0994C137.525 61.8743 135.68 58.8524 133.624 56.2043C132.856 55.2157 132.665 54.8468 133.043 55.0802C133.369 55.2818 135.533 58.1096 136.578 59.6999C138.441 62.5357 139.558 64.6804 140.861 67.9238C141.203 68.7758 141.523 69.498 141.573 69.5284C141.776 69.6556 155.863 68.5538 159.272 68.1457C161.338 67.8987 163.526 67.3793 164.023 67.0186C164.212 66.8819 164.468 66.7314 164.591 66.6856C164.951 66.5527 167.208 64.9351 167.79 64.3935C168.413 63.8147 169.115 62.7774 169.115 62.4362C169.115 61.9956 167.564 61.6479 163.061 61.0792C160.012 60.694 159.676 60.6743 159.532 60.871C159.391 61.0637 159.329 61.0477 158.98 60.7287L158.587 60.3682L160.445 60.4461C162.424 60.5277 164.576 60.7691 167.257 61.207C168.843 61.4662 168.927 61.4967 169.375 61.985L169.843 62.4928L169.755 64.159C169.672 65.7291 169.686 65.8647 169.997 66.5132C170.346 67.2422 172.2 70.107 174.664 73.7265C175.785 75.3725 176.143 76.0027 176.109 76.2714C176.071 76.5796 175.894 76.3891 174.826 74.8838C172.875 72.1352 170.945 69.2488 170.063 67.7591L169.252 66.3903V65.11C169.252 64.4059 169.214 63.8297 169.168 63.8297C169.122 63.8297 168.582 64.302 167.969 64.8793C166.134 66.6054 164.529 67.6456 162.807 68.2259C161.596 68.6336 156.389 69.1587 151.155 69.401C146.703 69.6072 142.199 69.922 142.079 70.0358C141.997 70.1136 142.163 71.1215 142.525 72.7406C142.842 74.1597 143.318 76.3735 143.583 77.6603C144.09 80.1243 144.869 83.179 146.583 89.4267C147.777 93.7826 147.853 94.1058 147.676 94.1058C147.269 94.1058 145.92 89.7845 144.262 83.1651C143.694 80.8943 143.177 78.9856 143.115 78.9231C143.053 78.8604 142.05 79.1808 140.886 79.6341C138.853 80.4259 137.121 80.8943 136.225 80.8943C135.275 80.8943 131.862 79.4056 129.139 77.8029C128.427 77.3838 127.74 77.041 127.613 77.041C127.168 77.041 125.681 77.9076 123.838 79.241C122.816 79.9801 121.524 80.8136 120.967 81.0931C120.322 81.4167 119.927 81.7035 119.881 81.8818C119.84 82.0356 119.347 83.2859 118.785 84.659C118.222 86.0324 117.454 87.9491 117.079 88.9187C116.378 90.7273 115.661 93.1749 115.751 93.4473C115.779 93.5327 116.415 93.792 117.163 94.0267C118.478 94.4391 118.527 94.4694 118.65 94.9333C118.719 95.1972 118.744 96.5899 118.704 98.0279C118.641 100.305 118.578 100.867 118.216 102.386C117.84 103.961 117.358 105.253 117.146 105.253C117.102 105.253 117.108 105.145 117.16 105.012L117.16 105.012ZM115.386 92.9015C115.821 90.9825 116.554 88.76 117.644 86.055C118.728 83.3647 119.297 81.7464 119.297 81.3545C119.297 81.1076 119.017 80.7088 118.359 80.0195C116.916 78.5058 116.277 77.7135 113.31 73.7626C111.796 71.7461 110.504 70.0953 110.438 70.094C110.372 70.0925 110.176 70.5112 110.003 71.0245C109.83 71.5378 109.444 72.3427 109.145 72.8135C106.374 77.1747 106.527 76.7413 106.364 80.6683C106.291 82.4302 106.287 84.29 106.356 85.0775C106.475 86.4381 106.476 86.4408 107.278 87.6235C108.376 89.2441 110.447 91.2985 111.59 91.8999C112.602 92.4332 114.702 93.2643 115.062 93.2737C115.212 93.2737 115.332 93.1388 115.386 92.9015H115.386ZM77.8846 104.469C77.8779 104.227 78.0312 103.529 78.2241 102.918C78.417 102.307 78.5372 101.747 78.4912 101.672C78.4452 101.598 78.0768 101.538 77.6725 101.538C77.2682 101.538 76.2235 101.416 75.351 101.266C70.1725 100.381 64.9082 97.4751 61.2413 93.4773C59.4133 91.4843 57.7758 89.033 57.514 87.8978C57.1444 86.2945 57.4139 84.1777 58.4196 80.7848C58.7629 79.6268 59.0102 78.5918 58.9692 78.4849C58.8132 78.0785 56.4218 79.1677 53.0004 81.2031C51.1012 82.333 51.0081 82.3713 49.9728 82.4539C49.3853 82.5014 47.8529 82.4843 46.5676 82.4159C43.9552 82.2792 43.8225 82.3039 42.6098 83.1756C42.2347 83.445 41.8884 83.626 41.8401 83.5778C41.7919 83.5303 42.1341 83.1209 42.6007 82.6701L43.4492 81.8498L47.0714 81.8879L50.6936 81.9259L52.345 80.9957C55.0211 79.4883 56.8898 78.5719 58.1495 78.1484C58.7992 77.93 59.4116 77.6689 59.5104 77.568C59.7204 77.3535 60.1205 74.8075 60.1205 73.6855C60.1205 73.1683 60.0649 72.9116 59.9525 72.9116C59.8601 72.9116 59.4274 73.2651 58.991 73.6971L58.1975 74.4823L57.6796 74.3019C56.3634 73.8426 56.1226 73.376 55.0968 69.2971C54.2176 65.8013 53.6535 64.0829 51.8333 59.3568C49.99 54.5705 49.3329 52.7045 48.6869 50.4215C48.3886 49.3672 48.1092 48.4695 48.0661 48.4263C47.9264 48.2867 47.6232 48.8336 47.2433 49.91C45.5451 54.7227 44.5268 56.6032 42.0648 59.474C40.5972 61.1852 40.2112 61.4411 37.1382 62.742C34.998 63.648 34.6433 64.0685 32.1744 68.6303C30.3686 71.9669 29.8809 72.5638 31.4305 69.5408C33.3008 65.8918 34.2421 64.2617 34.7824 63.7353C35.3302 63.2015 36.2984 62.6747 37.902 62.0376C39.6117 61.3585 39.9594 61.1341 41.1572 59.9362C42.349 58.7442 43.5813 57.0516 44.5345 55.2971C45.912 52.7615 47.3725 48.7018 47.5275 46.9774C47.6176 45.9754 47.6642 45.8473 48.0774 45.4636C49.7745 43.888 50.0756 43.5377 50.5941 42.5364C50.8988 41.9479 51.2272 41.199 51.3239 40.8721C51.5228 40.1998 51.6943 40.0494 53.1977 39.2287C54.3624 38.5929 54.8733 38.161 55.9058 36.94C56.2748 36.5037 57.2966 35.5485 58.1766 34.8171C59.0565 34.0858 60.1404 33.1538 60.5852 32.7462C61.145 32.2333 61.842 31.7955 62.8491 31.3241C64.5931 30.5076 64.975 30.2481 65.4999 29.5236C65.8247 29.0751 65.9005 28.8298 65.9005 28.2265C65.9005 27.3239 65.6648 26.326 65.3997 26.106C65.2476 25.9797 64.8881 26.0281 63.7665 26.3253C62.1041 26.7659 61.7689 26.9518 61.989 27.3111C62.3747 27.9406 62.8423 28.1173 64.1216 28.1173C64.7972 28.1173 65.35 28.1594 65.35 28.2108C65.35 28.3307 63.901 28.8751 63.5902 28.8721C63.0788 28.8664 62.2539 28.2555 61.9784 27.677C61.827 27.3591 61.6258 27.067 61.5313 27.0278C61.3152 26.9381 59.1692 27.5537 58.4935 27.8992C58.2152 28.0414 57.5862 28.4789 57.0959 28.8713C55.9457 29.7916 54.4034 30.7398 51.6159 32.2406C49.4142 33.426 48.6934 33.7003 49.8056 32.9296C51.4375 31.7987 52.9226 29.5584 54.0614 26.5097C54.5529 25.1939 54.9378 24.7236 57.0768 22.8269C57.7113 22.2642 58.4313 21.4899 58.6768 21.1061C59.2959 20.1383 60.0686 19.3963 61.9096 18.0018C64.5437 16.0065 65.2697 15.0701 65.2697 13.6674C65.2697 12.8637 64.9492 11.9473 64.6681 11.9473C64.5996 11.9473 64.4309 12.3014 64.2931 12.7343C64.0458 13.5114 64.0296 13.5279 63.0105 14.0326C62.4428 14.3138 61.9248 14.548 61.8593 14.5529C61.7937 14.5586 61.4984 14.2988 61.2029 13.9771L60.6657 13.3922L59.4754 14.0116C57.858 14.853 56.5062 15.7559 55.4415 16.7059C54.5845 17.4706 53.595 18.1505 51.2441 19.5903C49.7098 20.53 48.7676 21.5188 47.6067 23.4077C45.5225 26.7989 42.6213 30.8512 41.1069 32.4864C40.172 33.4958 40.7788 32.5879 42.077 31.035C42.7603 30.2175 43.5504 29.1648 43.8327 28.6955C44.1151 28.2262 44.8821 27.0371 45.5372 26.0531C46.1923 25.0692 46.9941 23.7792 47.3189 23.1865C47.6437 22.5939 48.1417 21.8151 48.4255 21.456C49.019 20.7052 50.5075 19.5531 52.001 18.6885C52.7301 18.2663 53.6189 17.5199 55.0286 16.1458C56.1261 15.0761 57.5505 13.8033 58.1939 13.3175C60.1513 11.8394 61.4437 10.6298 61.7569 9.98278C61.9754 9.53141 62.0472 9.12025 62.0472 8.31942C62.0472 7.38264 62.0081 7.21653 61.7198 6.9282C61.3336 6.54206 59.823 5.75431 59.4686 5.75431C59.3329 5.75431 58.7371 6.20858 58.1448 6.76373C57.2868 7.56777 57.0773 7.84064 57.1148 8.10546C57.1557 8.39543 57.2754 8.4604 58.0523 8.61405C58.889 8.77945 58.9639 8.773 59.2909 8.50695C59.4822 8.35124 59.9169 8.03794 60.2568 7.81082C61.0925 7.2524 61.178 7.5678 60.3823 8.27387C58.9007 9.58866 57.4566 9.70327 56.4152 8.58855C56.2317 8.39216 56.0091 8.23145 55.9205 8.23145C55.4477 8.23145 53.7874 9.57628 51.9322 11.462C50.2279 13.1943 49.5852 13.7432 48.2472 14.6094C46.4339 15.7834 45.3922 16.6906 44.9102 17.516C44.7319 17.8213 44.0619 19.2788 43.4214 20.7547C41.3265 25.5818 40.425 27.3038 38.9904 29.2183C38.2305 30.2325 34.9954 33.5207 34.8756 33.4009C34.837 33.3623 35.5206 32.6227 36.3945 31.7571C38.9422 29.2335 40.2603 27.0421 42.8467 21.03C43.5794 19.327 44.3412 17.6345 44.5396 17.269C45.0087 16.405 46.1578 15.3516 47.8339 14.2494C49.5653 13.1108 50.73 12.11 52.1213 10.5652C53.1685 9.40258 53.2395 9.2846 53.2395 8.70875C53.2395 8.04417 53.4558 7.8798 53.5959 8.43787C53.6434 8.62701 53.7705 8.78188 53.8785 8.78188C54.3699 8.78188 57.4181 6.86663 58.556 5.84286L59.2623 5.20746L60.013 5.4657C61.1224 5.8474 61.5434 6.09611 62.0425 6.66452L62.4915 7.17589L62.4414 8.70144L62.3913 10.2269H64.0427C65.6139 10.2269 65.7392 10.2054 66.6203 9.78818C67.9362 9.16479 68.5301 8.72543 70.5889 6.85193C73.0282 4.63225 73.9477 3.95604 75.7403 3.06332C78.4579 1.71002 79.4554 1.5907 84.892 1.96894C92.0161 2.46462 92.0205 2.4656 96.8082 4.83853C100.339 6.58831 102.276 7.703 104.503 9.26625C105.335 9.85069 106.089 10.3569 106.177 10.3912C106.265 10.4256 106.492 10.2253 106.682 9.94639C107.012 9.4596 107.018 9.41336 106.833 8.80089C106.521 7.77442 106.601 7.72289 107.164 8.58855C108.094 10.0202 109.36 10.9608 112.003 12.1848C113.213 12.7449 113.452 12.9587 114.785 14.6708C115.154 15.1445 116.013 15.9412 116.774 16.5162C118.085 17.5062 118.895 18.415 119.081 19.1033C119.132 19.2924 119 19.1381 118.788 18.7601C118.508 18.2623 118.004 17.7577 116.957 16.9295C114.671 15.1203 114.006 14.4971 113.651 13.8274C113.337 13.2355 113.217 13.1536 111.431 12.3097C110.392 11.8191 109.17 11.1652 108.716 10.8567C108.261 10.5481 107.835 10.2957 107.768 10.2957C107.582 10.2957 107.013 10.947 107.068 11.0964C107.095 11.1691 107.461 11.5072 107.881 11.8477C109.294 12.9946 110.373 14.5078 112.424 18.2196C114.256 21.5357 114.341 21.6508 115.119 21.8444C115.762 22.0042 117.742 22.9174 117.86 23.1081C117.892 23.159 117.309 22.9619 116.566 22.6701C114.973 22.045 113.882 21.7426 112.797 21.6263L112.009 21.5418L111.601 22.4511C111.299 23.1231 111.106 23.382 110.861 23.4435C110.408 23.5574 108.897 23.2676 108.266 22.9457C107.608 22.6101 107.462 22.6133 107.462 22.9627C107.462 23.704 108.464 24.785 109.732 25.4112C110.186 25.6355 111.394 26.1369 112.416 26.5257C117.477 28.4513 119.628 30.1038 121.175 33.2567C121.533 33.9871 122.196 35.2022 122.647 35.957C123.837 37.9467 123.932 38.224 124.021 39.9519C124.064 40.7844 124.226 41.9559 124.381 42.555C124.537 43.1541 124.636 43.6727 124.601 43.7073C124.529 43.7795 122.199 41.8286 121.12 40.7926L120.398 40.0988V38.1141V36.1293L120.948 35.5321C121.251 35.2037 121.499 34.8428 121.499 34.7303C121.499 33.9517 117.617 28.9938 117.275 29.3357C117.236 29.3746 117.362 30.0761 117.556 30.8946C118.001 32.7809 118.142 33.8901 118.392 37.4747C118.676 41.5459 118.569 42.3541 117.146 46.9016C116.66 48.4532 116.139 50.373 115.987 51.1678C115.836 51.9625 115.628 52.9028 115.524 53.257C115.275 54.116 114.102 55.9841 113.812 55.9853C113.688 55.9853 113.3 56.2313 112.95 56.5309L112.315 57.0753L112.141 58.3909C112.045 59.1143 111.907 59.7432 111.834 59.7884C111.761 59.834 111.607 59.7694 111.492 59.6612C111.31 59.4789 111.305 59.3004 111.451 58.3031C111.573 57.4738 111.603 55.3946 111.56 50.8239C111.483 42.8063 111.444 42.5689 109.415 37.7877C108.322 35.2122 107.819 34.5271 106.716 34.1075C106.145 33.8906 106.029 34.1113 106.429 34.6532C106.805 35.1625 106.871 35.4783 106.601 35.4816C106.507 35.4829 105.377 34.9576 104.09 34.3147C102.803 33.6717 101.596 33.129 101.406 33.1084C101.069 33.072 101.063 33.0892 101.087 33.9416C101.111 34.7987 101.104 34.8164 100.635 35.0934C100.27 35.3085 100.119 35.5209 99.9921 35.9946C99.9009 36.3355 99.7553 36.6417 99.6685 36.675C99.5817 36.7082 98.7016 36.3302 97.7128 35.8347C96.6453 35.2997 95.8799 34.9903 95.8288 35.073C95.7159 35.2555 96.3358 36.3054 96.8745 36.8441C97.1347 37.1043 97.4413 37.2693 97.6668 37.2706C98.2604 37.2744 98.4103 37.442 98.3075 37.9895C98.2556 38.2665 98.275 38.5118 98.3528 38.5598C98.5934 38.7085 101.555 37.8754 103.441 37.1284L105.27 36.4043L105.611 36.7249C106.005 37.0951 106.773 38.565 106.773 38.9487C106.773 39.0917 106.683 39.3832 106.573 39.5963C106.357 40.0151 106.197 40.0606 104.328 40.2376C103.777 40.2896 103.3 40.3765 103.266 40.4307C103.233 40.4848 103.793 40.8925 104.511 41.3367C105.861 42.1723 107.252 43.3067 106.939 43.3175C106.841 43.3213 106.131 42.9519 105.363 42.4974C102.76 40.9584 101.526 40.7072 98.1035 41.0193C96.9303 41.1265 95.9011 41.1897 95.8164 41.1601C95.6501 41.1019 95.1729 38.9592 95.2857 38.7768C95.3233 38.716 95.7541 38.6234 96.2432 38.5711C97.2615 38.4621 97.5263 38.2562 97.3359 37.7215C97.2384 37.4476 96.9576 37.2596 96.122 36.9085C95.5241 36.6574 94.982 36.4845 94.9173 36.5245C94.8525 36.5646 94.8375 36.7483 94.8838 36.9329C95.0008 37.3991 94.8566 37.3552 94.1589 36.7121C93.5567 36.157 93.5529 36.1558 92.5609 36.196L91.5666 36.2365V37.9567C91.5666 39.5008 91.6061 39.7844 91.953 40.7269C92.1655 41.3044 92.4898 41.9183 92.6738 42.0911L93.0082 42.4054L93.9422 42.0389C94.4559 41.8373 94.9619 41.6724 95.0667 41.6724C95.1714 41.6724 94.8859 42.0594 94.4322 42.5325C93.4598 43.5463 93.3245 43.7755 93.1477 44.7079C92.9873 45.5537 93.0354 45.6613 94.1558 46.9631C94.9979 47.9416 95.8042 49.1094 95.7058 49.2079C95.6179 49.2952 92.1859 45.7725 92.1859 45.5944C92.1859 45.5061 92.4955 44.9237 92.874 44.3006C93.2524 43.6775 93.562 43.1085 93.562 43.036C93.562 42.8953 92.9812 42.6358 92.6661 42.6358C92.5616 42.6358 92.3912 42.8061 92.2874 43.0142C92.1836 43.2224 92.0146 43.3735 91.9118 43.3502C91.8091 43.3269 91.4075 43.2252 91.0193 43.1241C90.6312 43.0231 89.775 42.8954 89.1167 42.8406C87.5052 42.7063 87.5194 42.4387 89.1469 42.2735C89.6725 42.2201 90.1108 42.2639 90.5344 42.4136C91.3668 42.7068 91.5334 42.6931 91.9616 42.2963L92.328 41.9567L91.7292 41.1609C91.3999 40.7232 90.9924 40.1153 90.8238 39.8099L90.5171 39.2546L90.7955 38.2499C91.1798 36.863 91.2948 35.7111 91.0966 35.2326C91.0081 35.0189 90.7422 34.7297 90.5057 34.5901C90.0852 34.3416 90.0782 34.3418 90.1844 34.5976C90.6241 35.6585 90.631 35.5749 90.0544 36.1654C89.7579 36.4691 89.4471 36.7176 89.3637 36.7176C89.2802 36.7176 88.8163 36.4389 88.3326 36.0983C87.8489 35.7577 87.4033 35.4791 87.3424 35.4791C87.161 35.4791 87.2133 36.142 87.5291 37.8453L87.8275 39.4545L87.0303 40.3911C86.5919 40.9063 86.0233 41.5613 85.7669 41.8467L85.3006 42.3656L84.3051 42.1836L83.3095 42.0018L83.2679 41.2863C83.2407 40.8208 83.1651 40.5709 83.0511 40.5709C82.9548 40.5709 82.4461 40.7172 81.9207 40.8959L80.9654 41.2208L80.2499 40.8942C79.164 40.3986 78.1744 40.1894 75.4903 39.8879C74.1417 39.7363 72.9805 39.5767 72.9099 39.5331C72.7381 39.4269 72.748 38.8162 72.9361 37.9286C73.1187 37.0672 73.4663 36.3369 73.8658 35.9757C74.3137 35.5706 75.2502 35.7578 77.1701 36.6363C79.5434 37.7222 80.1162 37.8664 81.594 37.7494C82.6432 37.6664 82.9357 37.6945 83.7125 37.9529C84.2082 38.118 84.6507 38.3127 84.6959 38.3857C84.741 38.4588 84.6024 38.7404 84.3878 39.0116C83.4434 40.2048 83.4788 40.129 83.6441 40.6032C83.8389 41.162 84.4522 41.8095 84.7867 41.8095C85.0946 41.8095 86.1734 40.7555 86.8005 39.8421C87.2978 39.1176 87.2952 39.2024 86.8875 36.9929C86.7827 36.4252 86.657 35.697 86.6079 35.3746C86.5297 34.8601 86.4248 34.7212 85.7487 34.237C85.3251 33.9337 84.6884 33.5993 84.3338 33.494C83.9793 33.3887 83.3931 33.0766 83.0313 32.8005C82.6694 32.5243 82.1505 32.1847 81.8781 32.0458C81.1876 31.6939 77.2739 30.5248 76.7863 30.5248C76.192 30.5248 75.2898 29.4402 74.4547 27.7221C73.8308 26.4382 73.7086 26.2741 73.2369 26.0866C72.4983 25.7931 71.1906 25.5178 70.9582 25.607C70.6829 25.7128 70.2612 27.7622 70.258 29.0109C70.2553 29.887 70.334 30.2407 70.7759 31.3499C71.3609 32.8184 71.6411 34.2272 71.4249 34.6135C71.3013 34.8345 71.272 34.8199 71.1398 34.4723C71.0588 34.2592 70.9925 33.9963 70.9925 33.888C70.9925 33.7798 70.5862 33.2485 70.0897 32.7074C69.2123 31.7513 68.4582 30.4776 68.1049 29.3549C67.7766 28.3119 67.6605 28.4736 67.7589 29.8366C67.9611 32.6359 67.5859 33.4824 64.548 37.0804C62.9422 38.9824 62.4268 39.8036 61.7744 41.5C61.4615 42.3136 61.0155 43.4616 60.7831 44.0511C60.3881 45.0533 60.359 45.2501 60.3364 47.0788C60.32 48.3969 60.2385 49.3037 60.0862 49.8603C59.4007 52.3657 59.4456 55.6117 60.2028 58.2894C60.2837 58.5755 60.2462 58.599 59.7081 58.599H59.1257L59.1611 60.8353C59.1805 62.0653 59.1876 63.1168 59.1768 63.1718C59.1469 63.3257 57.242 62.6014 56.6564 62.214C56.1455 61.8758 55.9644 61.5347 55.4489 59.9396C54.9851 58.5041 55.7199 59.4711 56.3305 61.0995C56.5599 61.7115 56.6207 61.7622 57.6062 62.1635C58.1754 62.3953 58.6887 62.5556 58.7471 62.5195C58.8053 62.4834 58.7922 62.1905 58.7177 61.8683C58.5396 61.0986 58.6446 59.6857 58.952 58.7167L59.1985 57.9395L58.7504 57.2028C58.228 56.3437 57.6636 55.7091 57.422 55.7091C57.3285 55.7091 57.1804 55.9259 57.093 56.1907C57.0056 56.4557 56.8924 56.6723 56.8415 56.6723C56.7906 56.6723 56.4823 56.3626 56.1564 55.9843C55.8305 55.6058 55.5126 55.2963 55.45 55.2963C55.3872 55.2963 55.2929 55.6988 55.2402 56.1907C55.1876 56.6827 55.0887 57.0853 55.0206 57.0853C54.9525 57.0853 54.7646 56.8221 54.6031 56.5004C54.0721 55.4425 53.3628 54.9527 53.1531 55.4993C53.0311 55.8171 53.3376 59.5182 53.5867 60.7362C54.3561 64.4993 56.0033 67.1864 58.22 68.2956C58.7558 68.5635 59.3438 68.7828 59.5266 68.7828C59.9391 68.7828 60.5193 68.4906 60.8648 68.1089C61.0088 67.9493 61.1695 67.8194 61.2219 67.8194C61.2742 67.8194 61.3558 68.4853 61.4029 69.2989C61.4992 70.9593 62.1378 74.6542 62.6672 76.6141C63.1215 78.2965 63.5636 79.084 64.5957 80.0495C65.4673 80.8647 71.6794 86.0182 73.8079 87.6916C74.4722 88.2138 75.1852 88.9085 75.3925 89.2355C75.8082 89.8908 76.1936 91.4953 76.5787 94.1736C76.7092 95.0819 76.8901 95.9064 76.9804 96.0061C77.4338 96.5061 85.7197 96.7295 88.1777 96.3079C88.945 96.1769 89.0873 96.1864 89.313 96.3915C89.4549 96.5206 89.5711 96.6676 89.5711 96.7199C89.5711 96.8547 85.6065 97.0651 83.1718 97.0581C81.979 97.0581 80.3122 96.946 79.2236 96.7994C78.1875 96.6607 77.2503 96.5806 77.141 96.6227C76.8651 96.7291 76.6496 100.825 76.9114 100.987C77.0058 101.044 77.3738 101.131 77.7292 101.179C78.8285 101.325 78.8726 101.409 78.5702 102.78C78.4278 103.426 78.2178 104.169 78.1036 104.432L77.8959 104.908L77.8851 104.468L77.8846 104.469ZM76.2396 100.608C76.6588 99.5394 75.8678 91.3523 75.2055 89.9045C74.8248 89.0723 74.1985 88.5091 70.2355 85.4356C64.6284 81.0869 63.6147 80.162 62.8954 78.7368C62.3251 77.6071 62.1134 76.7997 61.6427 73.958C61.4183 72.6029 61.1653 71.4263 61.0806 71.3433C60.9684 71.2332 60.8599 71.273 60.6799 71.4933C60.4752 71.7438 60.4202 72.1547 60.3575 73.9018C60.2706 76.3217 60.0472 77.3694 58.8037 81.1885L58.0259 83.5772L58.0067 85.7793L57.9875 87.9811L58.6581 89.0803C62.2232 94.9245 68.1618 99.2499 74.6261 100.711C76.0936 101.043 76.0684 101.044 76.2397 100.608L76.2396 100.608ZM123.595 41.2944C123.65 39.4998 123.575 38.6436 123.31 38.0468C122.988 37.3201 121.81 35.48 121.668 35.48C121.608 35.48 121.424 35.5751 121.258 35.6914C120.77 36.0329 120.626 36.788 120.737 38.4151L120.836 39.8655L122.027 41.1093C122.683 41.7933 123.296 42.3547 123.391 42.3569C123.511 42.3588 123.573 42.0411 123.595 41.2944H123.595ZM110.643 22.9222C110.955 22.6619 111.61 21.5859 111.532 21.4607C111.412 21.2664 109.205 20.8716 108.494 20.9171C107.816 20.9604 107.805 20.9683 107.765 21.4453C107.732 21.8314 107.806 22.0078 108.128 22.3163C108.818 22.9773 110.182 23.3061 110.643 22.9222ZM63.6712 12.8757C64.1721 11.5231 64.1713 11.5338 63.7722 11.5338C63.2245 11.5338 62.1073 12.1616 61.6965 12.7002C61.149 13.4179 61.2995 13.5981 62.4459 13.5981H63.4036L63.6712 12.8757H63.6712ZM23.1011 101.571C23.1011 101.514 23.2287 101.132 23.3845 100.722C23.8412 99.521 24.296 97.4044 24.7621 94.3117C25.2356 91.1705 25.2314 91.4226 24.9408 83.4027C24.8432 80.7094 24.8918 80.477 25.8525 79.036C26.1553 78.5819 26.4032 78.1425 26.4034 78.0595C26.4037 77.955 25.7929 77.9285 24.374 77.9741C22.1627 78.0443 20.5324 77.8638 17.8027 77.2484C14.9958 76.6151 13.2226 75.4043 12.3397 73.5176C11.9146 72.6091 11.9091 72.5717 12.0663 71.6552C12.1545 71.1408 12.4681 70.0831 12.7631 69.3049C13.4385 67.5229 13.6636 66.4782 13.4776 65.9891C13.4017 65.7895 12.9539 65.3304 12.4824 64.9689C12.011 64.6075 11.0999 63.8938 10.4579 63.3834C9.33765 62.4926 9.27995 62.4647 9.02822 62.6923C8.63012 63.0528 7.76247 64.9645 7.2628 66.5823C6.58799 68.7672 5.94693 69.513 2.06933 72.6232C0.133432 74.176 -0.036069 74.2831 0.0050406 73.9265C0.0408937 73.6156 0.407501 73.2497 1.83889 72.0957C5.10368 69.4637 6.33564 67.9994 6.7829 66.2187C7.19148 64.5922 8.52939 62.114 9.63923 60.9283C9.96188 60.5834 12.0104 59.7014 12.4886 59.7014C12.6183 59.7014 13.1118 59.9833 13.5851 60.3278C14.125 60.7205 14.5346 60.9258 14.6841 60.8783C14.9236 60.8023 17.1793 58.2242 17.929 57.1697C18.5974 56.2296 19.3634 55.4783 21.3808 53.7837C24.4845 51.1769 24.8731 50.6772 26.263 47.5059C26.7236 46.4551 27.5875 44.7594 28.1828 43.7376C29.5248 41.434 29.6695 41.1421 31.135 37.7816C31.7879 36.2846 32.535 34.6366 32.7954 34.1196C33.3399 33.0384 34.8107 30.8471 36.1309 29.15C37.2077 27.7658 37.8394 26.481 38.864 23.5911C40.0969 20.1138 40.4861 19.3649 42.0469 17.4657C42.4624 16.9601 43.2397 15.6696 43.8703 14.4381C44.4749 13.2576 45.1737 12.0039 45.4232 11.6522C46.1808 10.5844 47.8007 8.52935 47.8482 8.57569C47.8726 8.59961 47.7957 8.80688 47.6771 9.03618C47.5585 9.26548 47.4928 9.53454 47.531 9.63414C47.6188 9.86289 48.7894 10.6109 48.9626 10.5489C49.1827 10.4701 51.0167 8.39664 51.2226 7.99384C51.3298 7.78419 51.4599 7.41493 51.5119 7.17334C51.5929 6.79709 51.5385 6.66001 51.1329 6.21735L50.6593 5.70053L50.2867 5.94462C50.0817 6.07888 49.6559 6.41631 49.3405 6.6943C48.6948 7.2634 48.8846 6.9458 49.7169 6.06447C50.0207 5.74278 50.3479 5.47949 50.444 5.47949C50.5402 5.47949 50.9638 5.64871 51.3855 5.85561C52.2361 6.27276 52.2087 6.14977 51.7851 7.64635C51.5571 8.45208 50.787 9.47665 49.7536 10.3492L49.0889 10.9105L48.215 10.4436C47.3764 9.99554 47.3273 9.98581 46.9963 10.2027C46.4056 10.5897 45.4672 12.0638 44.2998 14.4387C43.4088 16.2511 42.97 16.9688 42.1764 17.9114C40.9461 19.3729 40.2894 20.6836 39.3379 23.5764C38.3602 26.5491 37.6615 27.9918 36.4388 29.5629C34.2804 32.3361 33.1664 34.2657 31.6319 37.8888C30.8333 39.7742 29.4656 42.4813 28.5425 44.0037C27.5864 45.5805 27.0636 46.6119 26.4121 48.2069C25.4352 50.5989 24.4706 51.8306 22.2784 53.4857C20.45 54.8662 18.0235 57.2233 16.8008 58.8068C16.3332 59.4124 15.324 60.5581 14.558 61.3528C13.3063 62.6515 13.1766 62.706 13.861 61.6458C14.0537 61.3473 14.0503 61.3038 13.8203 61.1357C13.363 60.8011 12.1509 60.6291 11.3949 60.7913C10.4735 60.9889 9.6143 61.4405 9.6143 61.7271C9.6143 62.0716 10.8435 63.1601 11.7511 63.6195C12.6969 64.0978 14.0516 65.3106 14.2939 65.8956C14.4509 66.2747 14.4047 66.4806 13.7767 68.2018C12.5156 71.6582 12.4652 72.9656 13.5387 74.3731C14.887 76.1409 19.7784 77.5825 24.4518 77.5895C26.2673 77.5895 26.4762 77.5362 27.211 76.8528C27.6653 76.4303 27.6723 76.4286 27.5794 76.7655C27.5273 76.9554 27.1132 77.6546 26.659 78.321C25.5077 80.0098 25.4405 80.2127 25.4405 81.9976V83.5229L25.9529 83.7369C26.2347 83.8546 27.2044 84.1422 28.1078 84.3761L29.7503 84.8011L30.795 84.5841C31.3696 84.4644 32.6568 84.0225 33.6554 83.6015C34.654 83.1805 35.6806 82.7967 35.9368 82.7487C36.3016 82.6803 36.7877 82.8095 38.1809 83.3454C39.159 83.7216 40.2295 84.0737 40.5597 84.128C41.0034 84.2001 41.4523 84.4551 42.2799 85.1031C43.7206 86.2311 44.8714 87.2438 44.797 87.3183C44.7649 87.3506 44.1196 86.9709 43.3631 86.4751C41.4349 85.2118 39.8985 84.4222 38.3767 83.9127C36.5128 83.2889 35.6333 83.3634 33.216 84.3503C31.4641 85.0654 31.3983 85.0806 30.0507 85.0785C28.8357 85.0772 28.4975 85.0178 27.1635 84.5719C26.3324 84.2944 25.6014 84.1184 25.5391 84.1807C25.4768 84.2434 25.5283 85.4871 25.6537 86.9449C25.9031 89.8476 25.8339 91.2285 25.2844 94.3119C24.9314 96.2928 23.8301 101.066 23.6472 101.407C23.5102 101.663 23.1009 101.786 23.1011 101.571L23.1011 101.571ZM94.3516 81.3756C93.537 80.9695 92.5238 80.5654 92.1001 80.4775C91.2085 80.2933 90.875 80.3882 88.8341 81.4045C88.1639 81.7388 87.576 81.9724 87.5276 81.9241C87.3749 81.7703 88.3595 81.0489 89.5022 80.4754C90.9545 79.7466 91.7653 79.6486 92.8334 80.0727C94.5723 80.7631 96.0391 81.6482 96.0391 82.0071C96.0391 82.2025 95.9287 82.161 94.3516 81.3756V81.3756ZM89.5515 76.0284C88.8974 75.7796 87.9236 75.3153 87.3875 74.9968C85.9133 74.121 83.9217 72.5945 83.9619 72.3714C84.0147 72.0792 84.7487 71.9288 85.2451 72.1084C85.7233 72.2812 86.2851 72.1331 88.3027 71.3053C88.9298 71.048 89.5095 70.8784 89.5909 70.9287C89.6723 70.9781 90.6021 71.0142 91.6571 71.0066C93.3627 70.9876 93.7005 71.0331 94.704 71.3506C95.7258 71.6744 95.8001 71.7208 95.4886 71.8414C95.2994 71.9154 93.5034 71.9914 91.4976 72.0123C88.0017 72.0484 87.515 72.092 85.2016 72.5761C85.0313 72.6103 84.8919 72.6958 84.8919 72.7622C84.8919 72.9161 87.351 74.5532 88.2636 75.0078C89.506 75.6267 90.4055 75.8587 91.5857 75.8646C92.6614 75.8646 92.7597 75.8437 94.0598 75.1848C95.8169 74.2949 97.219 72.9967 97.0946 72.375C97.0304 72.0537 97.0688 71.9629 97.2943 71.9041C97.5392 71.8395 97.5528 71.792 97.4048 71.5159C97.1111 70.9671 95.8712 69.8254 94.7431 69.0651L93.6536 68.3305L92.6773 68.833L91.7009 69.3355L90.8768 69.1223C90.4235 69.0065 89.7317 68.8091 89.3394 68.6864L88.6262 68.4633L87.7402 69.0405C86.9121 69.58 86.1048 70.315 85.4538 71.1224C85.0514 71.6213 85.0962 71.1983 85.5228 70.471C85.8853 69.8525 87.9634 68.1691 88.5575 68.0127C88.7192 67.969 89.3571 68.0943 89.9752 68.2902C91.4092 68.7433 91.7379 68.7365 92.7362 68.2332C93.1861 68.0061 93.6103 67.8202 93.679 67.8202C93.9092 67.8202 96.5138 69.9614 97.1139 70.6437C97.6457 71.2487 97.6994 71.3727 97.6334 71.844C97.4099 73.4424 95.4651 75.2735 93.1262 76.0876C91.6522 76.6007 91.0272 76.5904 89.5515 76.0287L89.5515 76.0284ZM80.901 70.0751C80.901 70.0276 81.3319 69.1036 81.8585 68.0193C82.5265 66.644 83.0048 65.8509 83.4403 65.3963C83.7836 65.038 84.1055 64.7858 84.1555 64.8358C84.2055 64.8852 83.962 65.3545 83.6143 65.8774C83.2667 66.4002 82.662 67.4691 82.2707 68.253C81.8793 69.0366 81.4634 69.7862 81.3464 69.9186C81.1362 70.1566 80.901 70.2392 80.901 70.0744V70.0751ZM101.282 67.3383C100.559 65.7866 100.147 64.7672 100.215 64.699C100.342 64.5718 101.15 65.9123 101.487 66.8075C101.998 68.163 101.848 68.5512 101.282 67.3383V67.3383ZM112.669 64.9123C113.171 63.9349 113.173 63.9241 113.196 62.0568C113.212 60.7805 113.311 59.7355 113.506 58.7826C113.969 56.5229 114.084 56.4869 113.998 58.6292C113.856 62.1977 113.367 64.8464 112.729 65.5128C112.146 66.121 112.13 65.9624 112.669 64.9123H112.669ZM161.329 63.9324C160.602 63.159 160.248 62.728 160.338 62.728C160.378 62.728 160.765 63.1307 161.196 63.6227C162.082 64.6315 162.163 64.82 161.329 63.9324H161.329ZM111.131 63.1869C110.946 63.0008 111.033 60.7257 111.236 60.4492C111.425 60.1915 111.437 60.1959 111.58 60.5708C111.813 61.1823 111.769 62.8063 111.511 63.0636C111.265 63.3099 111.256 63.3128 111.131 63.189L111.131 63.1869ZM89.4673 62.2182L88.7834 61.4334L86.7454 61.894L84.7073 62.3549L84.1905 61.8008C83.6987 61.2736 83.2475 60.1879 83.2356 59.5035C83.2316 59.2478 83.1947 59.2608 82.878 59.6327C82.6841 59.8598 82.2822 60.541 81.9849 61.1464L81.4444 62.2474L81.4946 61.5453C81.5964 60.1207 82.6496 58.6814 84.4585 57.4947L85.5113 56.8041L85.58 55.2759C85.6407 53.9286 85.6824 53.7253 85.932 53.5601C86.2118 53.3748 86.2145 53.3869 86.1595 54.5759C86.1206 55.4173 86.1662 55.958 86.3107 56.3734C86.5346 57.0167 86.5446 57.003 85.7455 57.1415C85.2338 57.2302 84.1373 57.9353 83.941 58.3021C83.8698 58.435 83.7948 59.0395 83.7741 59.6451L83.7365 60.7466L84.3981 61.3593C84.7619 61.6966 85.1101 61.9913 85.1719 62.0146C85.2337 62.0374 85.5488 61.7701 85.8722 61.4191C86.5883 60.6424 87.1201 60.3521 87.8269 60.3521C88.3197 60.3521 88.4412 60.4356 89.3133 61.3929C90.5311 62.7277 90.9319 62.8834 91.9441 62.4157C92.3419 62.2315 93.2172 61.6697 93.8891 61.1667C94.5611 60.6636 95.1419 60.252 95.1798 60.252C95.2177 60.252 95.6754 60.6544 96.1969 61.1464C96.7184 61.6384 97.243 62.0411 97.3626 62.0411C97.9207 62.0411 98.9425 60.3948 99.1353 59.1855C99.1866 58.8636 99.2791 58.6005 99.341 58.6005C99.4812 58.6005 99.8938 59.7867 99.8882 60.1731C99.8842 60.4329 99.8715 60.4369 99.7437 60.2168C99.5063 59.8095 99.2532 59.9466 98.9656 60.6386C98.5504 61.6377 97.8987 62.3157 97.3535 62.3157C97.0713 62.3157 96.8111 62.2074 96.6452 62.0212C96.2637 61.5932 95.596 61.3522 94.7907 61.3522C94.125 61.3522 94.0284 61.3997 93.127 62.178L92.17 63.0037H91.1606H90.1512L89.4673 62.2185L89.4673 62.2182ZM156.644 58.7028C156.033 58.0783 155.14 57.0719 154.659 56.4664C154.178 55.8609 153.281 54.8391 152.666 54.1958C152.052 53.5523 150.835 52.2209 149.963 51.237C149.091 50.253 147.919 48.9473 147.358 48.3354C146.798 47.7236 145.72 46.3333 144.963 45.2459C144.206 44.1584 143.183 42.832 142.69 42.2985C141.437 40.9422 141.299 40.7271 139.663 37.5503C138.862 35.9951 137.335 33.3293 136.27 31.6262C132.216 25.1406 131.361 23.2429 129.763 17.1762C128.948 14.0788 128.205 11.7441 127.741 10.8167C127.408 10.1509 126.751 9.54147 124.633 7.93554C124.006 7.46064 123.03 6.67642 122.462 6.19289C121.894 5.70935 120.824 4.90935 120.083 4.41513C119.342 3.92092 118.764 3.48835 118.798 3.45392C118.948 3.30428 120.242 4.03193 121.117 4.75775C122.74 6.10518 123.04 6.30428 123.446 6.30428C123.959 6.30428 123.96 5.99915 123.45 5.19587C122.711 4.03285 121.641 3.2982 120.479 3.15489C119.873 3.08026 119.739 3.00039 119.338 2.47475C118.721 1.66578 118.767 1.48705 119.435 2.09099C119.738 2.36471 120.05 2.58869 120.127 2.58869C120.627 2.58869 120.265 1.40236 119.641 0.993243C119.357 0.807521 119.093 0.776776 118.328 0.840943C117.801 0.885189 117.37 0.877982 117.37 0.825759C117.37 0.637948 118.649 -0.0392148 118.926 0.00178462C119.083 0.0249524 120.415 1.32577 121.928 2.93351L124.648 5.8235L124.656 6.5391C124.664 7.22461 124.692 7.27663 125.318 7.77501C125.677 8.06119 126.471 8.79526 127.081 9.40627C128.177 10.5029 128.197 10.5365 128.688 12.0237C128.961 12.8522 129.561 14.9007 130.021 16.5759C131.547 22.1377 132.664 24.8121 135.172 28.909C135.902 30.1012 137.096 32.0519 137.825 33.244C138.553 34.4362 139.602 36.3405 140.154 37.4759C141.369 39.9743 141.959 40.8937 143.158 42.1549C143.661 42.6847 144.583 43.8584 145.206 44.763C146.647 46.8551 147.095 47.416 149.784 50.498C150.997 51.8888 152.321 53.4292 152.726 53.9213C153.131 54.4132 154.368 55.8077 155.474 57.02C157.952 59.7339 158.041 59.839 157.883 59.839C157.813 59.839 157.256 59.3282 156.645 58.7036L156.644 58.7028ZM97.8267 58.3224L97.5314 57.9076L97.9023 58.0766C98.2312 58.2265 98.3013 58.2112 98.52 57.941C98.7902 57.6073 99.0001 57.5549 99.1427 57.7857C99.2258 57.9202 98.444 58.7182 98.2159 58.7317C98.1644 58.7317 97.9892 58.5507 97.8267 58.3225V58.3224ZM96.1118 57.2885C96.0177 56.4503 95.6654 54.9236 95.295 53.7485C95.058 52.9969 95.1796 52.8863 95.5217 53.542C95.7971 54.0701 97.2776 57.3994 97.2776 57.4907C97.2776 57.5257 97.2034 57.4775 97.1125 57.3886C96.8933 57.1694 96.5895 57.1782 96.5895 57.4038C96.5895 57.5031 96.5028 57.7025 96.3969 57.8474C96.2216 58.0872 96.1959 58.0367 96.1118 57.2888V57.2885ZM98.9639 54.4804C98.6576 54.2585 98.2531 53.8714 98.065 53.6203C97.5993 52.9985 97.2417 52.2691 97.4024 52.2691C97.537 52.2691 99.4556 54.3247 99.6572 54.685C99.8317 54.9968 99.5703 54.9197 98.9639 54.4804V54.4804ZM78.5664 54.4091C78.7519 54.2261 83.5919 51.718 83.7597 51.718C83.9356 51.718 83.2486 52.3432 82.5524 52.8166C81.4545 53.5632 80.458 54.0381 79.777 54.1392C79.4491 54.1876 79.0436 54.3134 78.8759 54.4179C78.4783 54.666 78.3109 54.6613 78.5664 54.4046V54.4091ZM128.513 52.8667C127.645 52.2862 127.173 51.6949 126.937 50.8923C126.881 50.7032 127.079 50.9207 127.377 51.3758C127.675 51.8308 128.161 52.4014 128.459 52.644C129.039 53.1177 129.068 53.2379 128.513 52.8667V52.8667ZM77.3822 49.3631C77.2324 49.1208 77.5454 49.0105 78.6479 48.9173C79.5647 48.8394 80.1337 48.6802 82.2413 47.9089C82.6397 47.7631 83.0216 47.7249 83.4455 47.7885C84.5462 47.9535 84.1492 48.2776 82.8462 48.2776C82.1838 48.2776 81.9451 48.3526 81.3153 48.7583C80.4334 49.3265 79.942 49.4386 78.7531 49.3432C78.2675 49.3043 77.8363 49.3281 77.7948 49.3944C77.6913 49.5618 77.4959 49.5472 77.3822 49.3634V49.3631ZM86.1649 49.4248C85.8792 49.3094 85.9648 49.1061 86.5927 48.4075C87.0144 47.9385 87.2839 47.4566 87.4999 46.7849C87.8482 45.7017 87.87 45.7876 86.8538 44.2447C86.5146 43.7297 86.267 43.2784 86.3036 43.2418C86.4109 43.1346 87.5873 44.3394 87.9755 44.9542C88.5494 45.8633 88.4363 46.3326 87.2771 47.8534C87.0373 48.168 86.7996 48.6707 86.7489 48.9707C86.661 49.4915 86.5479 49.5794 86.1649 49.4248ZM100.026 48.685C99.1556 48.4782 97.14 47.704 97.14 47.5764C97.14 47.3727 97.4863 47.4273 99.3894 47.9305C100.385 48.1938 101.447 48.4489 101.75 48.4974C102.204 48.5701 102.252 48.6051 102.025 48.6971C101.673 48.8397 100.652 48.8336 100.026 48.6837V48.685ZM102.507 48.5026C102.507 48.3955 103.617 47.69 103.683 47.7556C103.821 47.8942 103.585 48.2437 103.25 48.3964C102.919 48.5472 102.507 48.606 102.507 48.5026ZM72.9191 48.0227C72.9191 47.9397 73.0394 47.6071 73.1866 47.2834C73.3337 46.9596 73.4884 46.53 73.5302 46.3286C73.5917 46.0325 73.8942 45.802 75.1127 45.1229C75.9413 44.6611 76.8922 44.1664 77.2258 44.0234C78.6564 43.4102 81.3633 43.5434 82.9653 44.306C83.4573 44.5402 83.7814 44.761 83.6855 44.7966C83.5896 44.8321 82.8817 44.6954 82.1122 44.4924C80.9814 44.1941 80.487 44.1331 79.5341 44.1741C78.4978 44.2187 78.1968 44.2963 77.0477 44.8169C75.7236 45.4166 74.808 46.0755 75.2989 46.0755C75.4312 46.0755 76.1047 45.7915 76.7957 45.4445C78.1289 44.7749 79.6942 44.36 80.3178 44.5109C80.8122 44.6305 83.6064 46.0257 83.7201 46.2098C83.8477 46.4162 83.6809 46.4448 81.2406 46.6332C79.7235 46.7504 78.614 46.7637 77.6893 46.6761C75.5934 46.4773 74.8621 46.5934 74.0649 47.2507C72.9848 48.1413 72.9191 48.1856 72.9191 48.0228V48.0227ZM81.6539 46.1642C82.2008 45.7643 81.3945 45.1213 80.6845 45.3912C80.247 45.5576 80.2852 45.9307 80.7646 46.1732C81.2024 46.3947 81.3406 46.3933 81.6539 46.1637V46.1642ZM125.438 46.7981C124.991 45.9143 124.634 44.6745 124.783 44.5248C124.852 44.4559 125.056 44.8349 125.26 45.4119C125.654 46.5253 125.91 47.4518 125.825 47.4518C125.794 47.4518 125.62 47.1576 125.438 46.7981ZM105.39 46.6762C104.424 45.8515 104.179 45.7701 103.15 45.9327C101.589 46.1792 98.9809 46.2708 98.8649 46.0832C98.8074 45.9901 98.8293 45.845 98.9135 45.7608C99.1258 45.5486 99.1049 45.1702 98.868 44.9333C98.4337 44.499 97.4692 45.1137 97.5787 45.7549C97.6159 45.9727 97.538 46.0013 97.0029 45.9661C96.1554 45.9103 96.0103 45.7207 96.5087 45.3198C97.4149 44.591 99.2469 43.8738 100.202 43.8738C101.136 43.8738 103.506 44.4265 104.207 44.8076C104.632 45.0392 105.106 45.4756 105.504 46.0025C105.85 46.459 106.186 46.9044 106.253 46.9923C106.323 47.0844 106.322 47.1843 106.25 47.2284C106.182 47.2704 105.795 47.022 105.39 46.6764L105.39 46.6762ZM109.388 47.2606C109.388 47.2312 109.077 45.8293 108.696 44.1452C108.316 42.4611 108.028 41.0589 108.058 41.0292C108.15 40.9367 108.676 42.2676 108.968 43.3357C109.193 44.1555 109.659 46.7572 109.663 47.2109C109.663 47.2677 109.601 47.3142 109.526 47.3142C109.45 47.3142 109.388 47.2901 109.388 47.2609L109.388 47.2606ZM67.7582 46.0755C68.0462 44.6992 69.3697 42.0051 70.2257 41.0525C70.6522 40.5778 70.5189 40.9093 69.2568 43.4608C68.4518 45.0881 67.7627 46.4505 67.7253 46.4884C67.688 46.5262 67.7028 46.3404 67.7582 46.0755H67.7582ZM105.81 45.4756C105.81 44.971 104.015 43.8608 102.202 43.2442C101.043 42.8498 100.821 42.8367 100.365 43.1353C100.165 43.266 99.6057 43.3902 99.031 43.4313C98.1823 43.4921 97.986 43.5568 97.6581 43.8848C97.1472 44.3956 95.0757 45.1661 95.0757 44.8453C95.0757 44.6677 96.0623 44.096 97.0048 43.7275C97.4198 43.5653 98.0905 43.2791 98.4953 43.0916C100.189 42.3072 101.891 42.3567 103.677 43.2424C105.494 44.144 106.826 45.4871 106.051 45.6365C105.908 45.6642 105.81 45.5988 105.81 45.4756V45.4756ZM73.1284 44.9793C73.0831 44.9062 73.4046 44.6643 73.8427 44.4418C74.2809 44.2194 75.4209 43.5125 76.3763 42.8711C77.8667 41.8703 79.3345 41.1212 79.8052 41.1212C79.878 41.1212 79.9376 41.2073 79.9376 41.3124C79.9376 41.4176 79.4267 41.7668 78.8023 42.0888C78.1778 42.4108 76.9986 43.1336 76.1819 43.6949C74.4258 44.9018 73.3581 45.351 73.1283 44.9793H73.1284ZM48.3541 34.1027C48.4911 33.9513 48.6342 33.8274 48.672 33.8274C48.7099 33.8274 48.6288 33.9512 48.4917 34.1027C48.3547 34.254 48.2117 34.3779 48.1738 34.3779C48.1359 34.3779 48.2171 34.2541 48.3541 34.1027H48.3541ZM130.567 25.7358C128.758 24.1305 128.462 23.6451 126.682 19.3774C125.4 16.3015 124.627 14.6963 124.17 14.1562C123.484 13.3449 117.082 9.2575 115.117 8.37598C113.976 7.86378 112.101 7.26699 111.634 7.26699C111.298 7.26699 111.284 7.29486 111.368 7.81743C111.436 8.24744 111.412 8.36798 111.256 8.36798C111.146 8.36798 111.018 8.30606 110.971 8.23029C110.924 8.15452 110.422 8.09259 109.855 8.09259C109.2 8.09259 108.676 8.01611 108.418 7.88269C108.043 7.68897 108.012 7.61433 108.012 6.91928C108.012 6.50491 107.973 6.16589 107.925 6.16589C107.878 6.16589 107.587 6.39334 107.28 6.67124C106.972 6.94916 106.698 7.10819 106.67 7.02463C106.495 6.50049 108.219 4.80755 108.678 5.05296C108.804 5.12094 109.387 5.45931 109.972 5.80519C110.557 6.15107 111.121 6.4013 111.226 6.36119C111.493 6.25864 113.684 7.14214 115.719 8.17222C118.636 9.64941 123.674 12.9758 124.475 13.9542C124.734 14.2693 125.089 14.8907 125.265 15.3352C125.442 15.7797 125.851 16.8245 126.174 17.6571C126.779 19.2138 128.06 22.186 128.548 23.1619C128.699 23.4646 129.481 24.3472 130.285 25.123C131.857 26.6384 132.045 27.0481 130.567 25.7357L130.567 25.7358ZM110.441 7.33074C110.545 7.05934 110.193 6.67343 109.435 6.22917C108.753 5.82955 108.562 5.87499 108.562 6.43722C108.562 6.97269 109.244 7.54227 109.885 7.54227C110.185 7.54227 110.39 7.46443 110.441 7.33074ZM120.849 24.8068C120.05 24.4089 119.684 24.0731 120.083 24.1054C120.287 24.1225 120.327 24.0203 120.316 23.506L120.304 22.8868L120.525 23.3825C120.647 23.6553 120.947 24.1064 121.192 24.3851C121.571 24.817 121.748 25.1574 121.595 25.1574C121.572 25.1574 121.236 24.9997 120.849 24.8068H120.849ZM110.657 4.39821C110.489 3.96427 110.351 3.49835 110.351 3.36282C110.351 3.22723 110.718 2.74979 111.166 2.3017C112.139 1.32892 112.412 1.28745 113.425 1.95909C114.777 2.85644 115.358 2.8959 116.21 2.14836C116.747 1.6764 116.868 1.78377 116.794 2.66658C116.751 3.18215 116.742 3.18968 115.787 3.48313C115.258 3.64607 114.563 3.91382 114.245 4.07819C113.553 4.43473 113.065 4.44718 112.416 4.1249L111.934 3.8859L111.972 2.96167C111.994 2.40733 111.953 2.03755 111.87 2.03755C111.794 2.03755 111.515 2.26974 111.252 2.55357C110.73 3.11411 110.67 3.45755 110.91 4.49835C111.107 5.35279 111.013 5.31554 110.657 4.39809L110.657 4.39821ZM114.176 3.33976C114.225 2.99932 113.759 2.5375 113.081 2.2543C112.641 2.07029 112.56 2.06959 112.413 2.24676C112.198 2.50529 112.456 3.19062 112.882 3.49182C113.307 3.79263 114.125 3.69594 114.176 3.33894V3.33976Z" fill="black"/>
</svg>
