<svg width="126" height="142" viewBox="0 0 126 142" fill="none" xmlns="http://www.w3.org/2000/svg">
<path d="M115.518 48.134C118.652 35.4497 109.4 26.7946 109.4 26.7946C108.355 17.8409 95.8202 16.9456 95.8202 16.9456C95.0741 3.21667 65.2286 2.32131 65.2286 2.32131C65.2286 2.32131 58.0657 -2.90164 42.3969 2.32131C32.3987 5.60431 31.3541 12.0211 31.8018 16.1994C26.4296 14.4087 19.8636 14.8564 13.7453 22.1685C5.09012 32.6144 5.68703 41.2696 8.52234 47.9848C2.40403 53.9539 -5.35578 66.6382 5.23935 86.4854C17.1775 108.72 8.67157 114.54 8.67157 114.54C8.67157 114.54 23.1466 123.643 31.2049 118.122C32.6971 119.763 34.3386 122.151 36.1294 124.538C42.5461 133.044 49.1121 141.998 55.8273 141.998H62.841H70.1531C77.0176 141.998 83.5836 133.193 89.8511 124.538C91.1942 122.598 92.5372 120.808 93.731 119.315C118.204 116.779 110.146 106.93 121.487 84.0978C132.978 60.8183 115.518 48.134 115.518 48.134ZM111.937 71.4135C111.937 71.5627 111.937 71.5627 111.937 71.7119C111.937 71.8611 111.787 72.0104 111.787 72.1596C111.787 72.3088 111.788 72.3088 111.638 72.4581C111.638 72.6073 111.489 72.7565 111.489 73.055C111.489 73.2042 111.489 73.2042 111.34 73.3534C111.34 73.5026 111.191 73.8011 111.191 73.9503C111.191 74.0996 111.191 74.0996 111.191 74.2488C111.041 74.5472 111.041 74.8457 110.892 75.1441V75.2934C110.743 75.5918 110.743 75.8903 110.594 76.0395C110.594 76.1887 110.594 76.1887 110.444 76.338C110.444 76.6364 110.295 76.7856 110.295 77.0841C110.295 77.2333 110.146 77.3825 110.146 77.3825C109.997 77.681 109.997 77.8302 109.848 78.1287C109.848 78.2779 109.698 78.4271 109.698 78.4271C109.549 78.7256 109.549 79.024 109.4 79.3225V79.4717C109.251 79.7702 109.101 80.2179 108.952 80.5163C108.952 80.6655 108.952 80.6655 108.803 80.8148C108.654 81.1132 108.654 81.4117 108.504 81.5609C108.504 81.7101 108.355 81.8594 108.355 81.8594C108.206 82.1578 108.206 82.307 108.057 82.6055C108.057 82.7547 107.908 82.904 107.908 82.904C107.758 83.2024 107.758 83.3516 107.609 83.6501C107.609 83.7993 107.46 83.7993 107.46 83.9485C107.311 84.247 107.161 84.6947 107.012 84.9931C106.863 85.2916 106.714 85.59 106.565 85.8885C106.565 86.0377 106.415 86.0377 106.415 86.1869C106.266 86.3362 106.117 86.6346 106.117 86.7839C106.117 86.9331 105.968 86.9331 105.968 87.0823C105.818 87.2315 105.669 87.53 105.669 87.6792C105.669 87.8284 105.52 87.8284 105.52 87.9777C105.371 88.1269 105.371 88.2761 105.222 88.4254C104.923 84.6947 104.625 80.964 105.371 78.2779C107.311 70.5181 107.758 69.772 112.086 70.2196C112.086 70.2196 112.086 70.2196 112.086 70.3689C112.086 70.9658 111.937 71.2642 111.937 71.4135ZM66.124 77.2333H60.0057L59.8565 77.0841C59.8565 76.4872 59.8565 76.0395 59.8565 75.4426C59.558 72.9057 58.8119 70.9658 57.4688 69.6227H68.8101C67.3178 71.115 66.4225 73.2042 66.2732 75.8903C66.2732 76.4872 66.2732 76.7856 66.124 77.2333ZM84.6282 66.3397C80.8975 66.0413 77.4653 66.1905 74.4807 66.7874H52.3951C49.2613 65.8921 45.5307 65.8921 41.3523 66.3397C34.4879 66.9367 28.5188 68.5781 26.2804 74.398C26.2804 68.2797 26.4296 62.1614 26.4296 58.2815C26.4296 52.6108 32.1002 40.225 32.3987 39.3296C32.3987 39.3296 32.3987 39.3296 32.3987 39.1804C33.294 37.9866 34.0402 36.7928 34.7863 35.599C35.6817 34.4051 36.7263 33.3606 37.9201 32.6144C40.7554 35.0021 44.1876 37.2405 47.9183 39.0312C53.2905 43.508 63.2887 49.1786 82.2405 53.9539C82.2405 53.9539 87.4635 56.0431 89.7019 60.2214C89.7019 60.2214 94.9248 56.64 92.6864 47.9848C93.4326 47.9848 94.3279 47.8356 95.0741 47.8356C96.4171 50.6709 98.2078 54.8493 98.2078 58.2815C98.2078 61.5645 98.3571 66.3397 98.3571 71.2642C95.2233 67.6828 90.1496 66.7874 84.6282 66.3397ZM18.9682 85.2916C18.819 84.9931 18.6698 84.6947 18.5206 84.247C18.5206 84.0978 18.3713 83.9485 18.3713 83.9485C18.2221 83.6501 18.2221 83.5009 18.0729 83.2024C18.0729 83.0532 17.9237 82.904 17.9237 82.7547C17.7744 82.4563 17.7744 82.307 17.6252 82.0086C17.6252 81.8594 17.476 81.7101 17.476 81.5609C17.3267 81.2625 17.3267 81.1132 17.1775 80.8148C17.1775 80.6655 17.0283 80.6655 17.0283 80.5163C16.8791 80.2179 16.7298 79.7702 16.5806 79.4717C16.5806 79.4717 16.5806 79.3225 16.4314 79.3225C16.2822 79.024 16.2822 78.7256 16.1329 78.4271C16.1329 78.2779 15.9837 78.1287 15.9837 78.1287C15.8345 77.8302 15.8345 77.681 15.6852 77.5318C15.6852 77.3826 15.536 77.2333 15.536 77.0841C15.536 76.9349 15.3868 76.6364 15.3868 76.4872C15.3868 76.338 15.3868 76.1887 15.2376 76.1887C15.0883 75.8903 15.0883 75.741 14.9391 75.4426V75.2934C14.7899 74.9949 14.7899 74.6965 14.6407 74.398C14.6407 74.2488 14.6407 74.2488 14.6407 74.0996C14.6407 73.9503 14.4914 73.6519 14.4914 73.5026C14.4914 73.3534 14.4914 73.3534 14.3422 73.2042C14.3422 73.055 14.193 72.9057 14.193 72.6073C14.193 72.4581 14.193 72.4581 14.0437 72.3088C14.0437 72.1596 13.8945 72.0104 13.8945 71.8611C13.8945 71.7119 13.8945 71.7119 13.8945 71.5627C13.8945 71.2642 13.7453 71.115 13.7453 70.8166V70.6673C16.4314 70.6673 17.0283 72.1596 18.6698 78.7256C19.2667 80.8148 19.2667 83.3516 19.1175 86.1869C19.2667 85.8885 19.1175 85.59 18.9682 85.2916C18.9682 85.2916 19.1175 85.2916 18.9682 85.2916ZM28.668 91.8576C28.5188 91.4099 28.3695 91.1114 28.2203 90.6638C28.5188 90.9622 28.668 91.1114 28.9665 91.4099C28.9665 91.4099 28.9665 91.5591 28.8172 91.5591C28.8172 91.7084 28.668 91.8576 28.668 91.8576ZM70.1531 138.566C63.1395 138.566 63.1395 138.566 63.1395 138.566C63.1395 138.566 63.1395 138.566 56.1258 138.566C49.1121 138.566 39.86 122.748 33.7417 115.734C33.1448 115.137 32.6971 114.391 32.2495 113.645C32.6971 113.197 33.1448 112.749 33.5925 112.302C35.3832 110.063 31.951 101.856 29.2649 94.096C29.2649 93.2006 29.4141 92.6037 29.4141 92.0068C32.8464 94.6929 38.2185 95.5883 44.0384 94.9914C52.0967 94.2452 58.215 87.3808 59.7072 80.2179H66.5717C68.064 87.53 74.4807 94.3944 82.6882 94.9914C87.7619 95.2898 92.2387 94.6929 95.671 92.7529C92.8357 100.811 89.105 109.914 90.8957 112.302C91.6418 113.346 92.5372 114.092 93.5818 114.54C93.2833 114.988 92.9849 115.435 92.5372 115.883C92.388 116.182 92.0895 116.331 91.9403 116.629L91.7911 116.779C91.6418 116.928 91.4926 117.226 91.3434 117.375L91.1942 117.525C91.0449 117.823 90.8957 117.972 90.5972 118.271C90.5972 118.271 90.5972 118.271 90.5972 118.42C90.448 118.718 90.1496 119.017 90.0003 119.315C83.882 126.777 76.1222 138.566 70.1531 138.566Z" fill="black"/>
<path d="M55.3958 111.599L55.8665 114.395L73.0833 111.496L72.6127 108.701L55.3958 111.599Z" fill="black"/>
<path d="M67.6163 117.375H60.9011V119.166H67.6163V117.375Z" fill="black"/>
</svg>
