<svg width="123" height="143" viewBox="0 0 123 143" fill="none" xmlns="http://www.w3.org/2000/svg">
<path d="M44.4634 71.5081C44.769 71.8137 45.0746 71.8137 45.2274 71.6609C45.3802 71.5081 45.2274 71.3553 45.0746 71.0497C44.9218 70.7441 44.9218 70.5913 45.0746 70.2857C45.533 69.5218 46.1441 68.9106 45.9913 68.7578C45.8385 68.605 44.9218 68.605 44.1578 69.8273C44.005 70.1329 43.8522 70.5913 44.005 70.8969C44.005 71.2025 44.3106 71.3553 44.4634 71.5081Z" fill="black"/>
<path d="M56.2286 69.9801C56.5342 70.5913 56.0758 71.5081 56.3814 71.6609C56.5342 71.6609 56.687 71.6609 56.9926 71.3553C57.2981 71.0497 57.6037 70.4385 57.1454 69.6745C56.8398 68.9106 56.2286 68.7578 55.7702 68.605C55.3118 68.605 55.159 68.605 55.0062 68.7578C55.0062 68.9106 55.923 69.3689 56.2286 69.9801Z" fill="black"/>
<path d="M46.4498 78.6895C46.9081 78.5367 47.5193 78.3839 47.9777 78.3839C48.2833 78.3839 48.5889 78.2311 48.7417 78.2311C49.0473 78.2311 49.2001 78.2311 49.2001 78.2311C49.5057 78.5367 49.964 78.8422 50.2696 78.8422C51.0336 78.995 51.7976 78.995 52.5616 78.5367L52.7143 78.3839C52.7143 78.3839 52.8671 78.3839 53.0199 78.3839C53.3255 78.3839 53.6311 78.3839 53.7839 78.3839C54.8535 78.5367 55.923 78.6894 56.8398 78.8422C58.5206 79.1478 59.5901 79.4534 59.7429 79.3006C59.7429 79.1478 58.8262 78.6895 57.1454 78.2311C56.2286 77.9255 55.3119 77.6199 54.0895 77.4671C53.7839 77.4671 53.4783 77.3143 53.1727 77.3143C53.0199 77.3143 52.8671 77.3143 52.5616 77.3143C52.4088 77.3143 52.256 77.3143 52.1032 77.4671C52.1032 77.4671 52.1032 77.6199 51.9504 77.6199C51.6448 77.7727 50.8808 77.9255 50.4224 77.7727C50.1168 77.7727 49.964 77.6199 49.8112 77.4671C49.3529 77.0087 48.8945 77.1615 48.5889 77.1615C48.2833 77.1615 47.9777 77.3143 47.6721 77.3143C47.0609 77.4671 46.6025 77.6199 45.9914 77.7727C44.9218 78.0783 44.1578 78.3839 43.3939 78.6895C42.0187 79.3006 41.1019 79.759 41.1019 79.9118C41.1019 80.0646 42.0187 79.759 43.5466 79.3006C44.6162 79.3006 45.533 78.995 46.4498 78.6895Z" fill="black"/>
<path d="M58.5206 81.287C58.215 81.4398 57.9094 81.5926 57.451 81.7453C55.923 82.3565 53.7839 82.8149 51.3392 82.8149C46.4498 82.6621 42.6299 80.9814 42.4771 81.287C42.3243 81.4398 46.1442 83.5789 51.3392 83.8845C53.9367 83.8845 56.2286 83.2733 57.7566 82.5093C58.0622 82.3565 58.5206 82.0509 58.6734 81.8981C58.979 81.7453 59.1317 81.4398 59.2845 81.287C59.5901 80.9814 59.7429 80.8286 59.7429 80.6758C59.7429 80.6758 59.4373 80.6758 58.9789 80.9814C58.9789 80.9814 58.8262 81.1342 58.5206 81.287Z" fill="black"/>
<path d="M55.4646 89.0795C54.2422 88.6211 52.5615 88.3155 50.728 88.4683C46.9081 88.7739 44.1578 89.9963 44.1578 90.1491C44.1578 90.3019 47.0609 89.3851 50.728 89.0795C52.5615 88.9267 54.2422 89.0795 55.3118 89.3851C56.3814 89.6907 56.9926 90.1491 57.1454 90.1491C57.1454 90.3019 56.687 89.6907 55.4646 89.0795Z" fill="black"/>
<path d="M58.215 80.6758C58.215 80.523 54.7007 80.3702 50.2696 80.3702C45.8386 80.3702 42.3243 80.523 42.3243 80.6758C42.3243 80.8286 45.8386 80.9814 50.2696 80.9814C54.7007 80.9814 58.215 80.8286 58.215 80.6758Z" fill="black"/>
<path d="M46.908 71.9665C47.3664 71.9665 47.672 72.1193 47.8248 72.1193C47.9776 71.9665 47.672 71.5081 47.0608 71.3553C46.4497 71.2025 45.9913 71.5081 45.9913 71.6609C45.9913 71.8137 46.4497 71.9665 46.908 71.9665Z" fill="black"/>
<path d="M53.9366 72.1192C54.2422 71.9665 54.5478 71.8137 54.5478 71.5081C54.5478 71.3553 54.0894 71.2025 53.631 71.5081C53.1727 71.8137 53.0199 72.272 53.1727 72.4248C53.3254 72.5776 53.631 72.272 53.9366 72.1192Z" fill="black"/>
<path d="M63.1043 49.0472C60.9652 49.2 59.1316 49.8112 57.9093 50.4224C57.2981 50.728 56.8397 51.1863 56.5341 51.3391C56.2285 51.6447 56.0757 51.7975 56.2285 51.7975C56.2285 51.7975 56.5341 51.7975 56.8397 51.6447C57.1453 51.4919 57.6037 51.1863 58.2149 51.0335C59.4372 50.5752 61.118 50.1168 63.1043 49.964C67.077 49.8112 70.2857 51.0335 70.2857 50.728C70.4385 50.5752 67.3826 48.8944 63.1043 49.0472Z" fill="black"/>
<path d="M55.923 13.9043L52.1031 7.79254L48.436 13.7515L52.1031 18.3354L55.923 13.9043ZM52.2559 12.8348V9.62608L54.7006 13.446L52.2559 12.8348ZM54.7006 13.9043L52.1031 16.8074V13.2932L54.7006 13.9043ZM51.7975 12.9876L49.5056 13.446L51.7975 9.77888V12.9876ZM51.7975 13.2932V16.6547L49.3528 13.7515L51.7975 13.2932Z" fill="black"/>
<path d="M45.0746 12.9876L40.4907 7.79254L37.8932 13.1404L42.477 19.2522L45.0746 12.9876ZM40.9491 11.154L39.4211 12.2236L40.6435 9.62608L40.9491 11.154ZM41.1019 9.62608L43.8522 12.8348L41.5603 12.682L41.1019 9.62608ZM44.1578 13.2932L42.477 17.2658L41.7131 12.9876L44.1578 13.2932ZM38.9628 12.9876L40.9491 11.6124L42.0187 17.113L38.9628 12.9876Z" fill="black"/>
<path d="M35.1429 15.2795L30.4063 10.3901L29.6423 16.5019L33.1566 20.3217L35.1429 15.2795ZM31.7814 14.9739L30.7118 15.7379L31.0174 12.682L31.7814 14.9739ZM31.323 12.3764L33.7677 14.9739L32.087 14.8211L31.323 12.3764ZM34.2261 15.4323L33.1566 18.0298L32.2398 15.2795L34.2261 15.4323ZM30.7118 16.1963L31.9342 15.4323L33.0038 18.7938L30.7118 16.1963Z" fill="black"/>
<path d="M29.0311 20.169L25.2112 16.9603L23.6832 21.2385L26.8919 23.3776L29.0311 20.169ZM27.8087 20.6273L26.7391 22.1553L26.4335 20.9329L27.8087 20.6273ZM26.2807 20.4745L25.8224 18.4882L27.8087 20.169L26.2807 20.4745ZM26.4335 22.1553L25.0584 21.2385L26.1279 21.0857L26.4335 22.1553ZM25.364 18.641L25.8224 20.4745L24.6 20.7801L25.364 18.641Z" fill="black"/>
<path d="M64.7851 16.3491L63.2572 11.0012L59.4373 14.2099L61.2709 18.9466L64.7851 16.3491ZM62.1876 14.6683L60.6597 14.3627L62.646 12.682L62.1876 14.6683ZM62.0348 15.1267L61.5764 17.4186L60.5069 14.8211L62.0348 15.1267ZM63.8684 16.0435L61.882 17.5714L62.9516 12.9876L63.8684 16.0435Z" fill="black"/>
<path d="M73.8 19.7106L72.8833 14.6683L67.5354 17.4186L68.605 21.6969L73.8 19.7106ZM71.3553 17.5714L72.8833 19.2522L69.5218 20.4745L71.3553 17.5714ZM71.5081 17.1131L72.1193 16.0435L72.5777 18.3354L71.5081 17.1131ZM70.5913 18.0298L68.7578 17.5714L71.6609 16.0435L70.5913 18.0298ZM70.2857 18.3354L68.9106 20.3217L68.2994 17.877L70.2857 18.3354Z" fill="black"/>
<path d="M74.564 61.882C74.564 62.1876 74.7168 62.4932 74.7168 62.7988C74.8696 63.1043 74.8696 63.5627 75.0224 63.8683L75.1752 64.0211L75.328 64.1739C75.4808 64.3267 75.4808 64.1739 75.4808 64.3267C75.6336 64.4795 75.6336 64.4795 75.6336 64.7851C75.6336 64.9379 75.328 65.2435 75.1752 65.3963C74.7168 65.8547 74.2584 66.6186 74.4112 67.2298C74.4112 68.4522 75.1752 68.7578 75.1752 68.7578C75.328 68.7578 75.0224 68.1466 75.0224 67.2298C75.0224 66.7714 75.328 66.4658 75.7864 66.0075C76.0919 65.7019 76.3975 65.5491 76.5503 65.0907C76.7031 64.9379 76.7031 64.4795 76.5503 64.1739C76.3975 63.8683 76.2447 63.7155 76.0919 63.4099C76.0919 63.4099 75.7864 63.2571 75.9392 63.2571C75.7864 62.646 75.4808 62.0348 75.328 61.5764C75.1752 60.9652 75.0224 60.5068 74.7168 60.0485C74.4112 59.2845 74.1056 58.6733 73.9528 58.8261C73.8 58.8261 73.8 59.4373 73.9528 60.354C74.4112 60.8124 74.564 61.4236 74.564 61.882Z" fill="black"/>
<path d="M122.694 141.641C122.694 136.752 122.236 112.61 115.819 112.304C110.318 112.152 107.72 108.943 107.568 108.79L100.539 104.665L86.0236 96.5665L79.1478 92.441C78.995 90.4547 78.3839 88.7739 77.4671 87.7044C78.6894 87.0932 79.4534 85.8708 79.4534 84.4957C79.4534 83.1205 78.6894 81.8981 77.6199 81.287C78.2311 80.6758 78.6894 79.9118 78.6894 78.995C78.6894 78.0783 78.2311 77.1615 77.4671 76.5503C77.6199 76.3975 77.7727 76.0919 77.9255 75.9391C78.6894 76.7031 79.9118 77.1615 81.4398 75.9391C84.3429 73.6472 84.1901 68.2994 84.1901 68.2994C84.1901 68.2994 87.7043 65.5491 87.7043 63.2571C87.7043 60.9652 92.5938 60.9652 92.5938 56.5342C92.5938 52.1031 92.5938 46.6025 89.6907 45.0745C86.7876 43.5466 87.3988 38.1988 84.6484 38.046C84.6484 38.046 83.4261 29.9478 80.2174 30.7118C80.2174 30.7118 80.2174 29.6422 79.3006 28.5727L82.0509 22.9193C84.0373 23.0721 85.5652 21.3913 85.5652 19.5578C85.5652 17.7242 84.0373 16.1963 82.2037 16.1963C80.6758 16.1963 79.3006 17.2658 78.8422 18.641C77.9255 17.5714 77.4671 16.0435 77.1615 14.8211C78.2311 14.2099 78.995 13.1404 78.995 11.918C78.995 10.0845 77.4671 8.55652 75.6335 8.55652C73.8 8.55652 72.272 10.0845 72.272 11.918C72.272 12.2236 72.2721 12.5292 72.4248 12.682C70.2857 12.5292 68.4522 11.154 67.2298 10.0845C68.1466 9.47329 68.605 8.40373 68.605 7.33416C68.605 5.50062 67.077 3.97267 65.2435 3.97267C63.4099 3.97267 61.882 5.50062 61.882 7.33416C61.882 7.79255 62.0348 8.25093 62.1876 8.70932C59.8957 8.70932 57.6037 7.18137 56.0758 5.80621C56.8398 5.19503 57.1453 4.27826 57.1453 3.36149C57.1453 1.52795 55.6174 0 53.7839 0C51.9503 0 50.4224 1.52795 50.4224 3.36149C50.4224 4.12547 50.7279 4.88944 51.1863 5.50062C48.436 6.87578 45.8385 6.41739 44.005 5.65342C44.3106 5.19503 44.4634 4.58385 44.4634 4.12547C44.4634 2.29193 42.9354 0.763975 41.1019 0.763975C39.2683 0.763975 37.7404 2.29193 37.7404 4.12547C37.7404 4.88944 37.8932 5.50062 38.3515 5.95901C36.6708 7.02857 35.1429 7.02857 33.6149 6.2646C33.9205 5.80621 34.0733 5.19503 34.0733 4.73665C34.0733 2.90311 32.5453 1.37516 30.7118 1.37516C28.8783 1.37516 26.7391 2.75031 26.7391 4.58385C26.7391 5.95901 27.5031 7.18137 28.7255 7.63975C28.1143 9.47329 27.0447 11.4596 25.6696 13.5988C24.7528 14.9739 23.836 15.7379 22.9193 15.8907C22.3081 15.8907 21.6969 15.7379 21.2385 15.2795C22.0025 14.6683 22.4609 13.7516 22.4609 12.682C22.4609 10.8484 20.9329 9.3205 19.0994 9.3205C17.2658 9.3205 15.7379 10.8484 15.7379 12.682C15.7379 14.5155 17.113 15.8907 18.9466 16.0435L21.5441 26.7391C19.405 28.4199 16.0435 32.087 20.3217 36.3652C20.3217 36.3652 9.01491 36.6708 12.2236 40.9491C12.2236 40.9491 5.80621 50.2696 10.8484 53.9366C10.8484 53.9366 7.48696 62.9516 14.3627 64.1739C14.3627 64.1739 16.6547 69.9801 21.8497 70.7441C21.8497 70.7441 23.6832 74.8696 26.2807 75.6335C26.4335 75.9391 26.5863 76.2447 26.7391 76.3975C25.9752 77.0087 25.5168 77.7727 25.5168 78.8422C25.5168 79.759 25.9752 80.523 26.5863 81.1342C25.5168 81.7453 24.7528 82.9677 24.7528 84.3429C24.7528 85.718 25.5168 86.9404 26.7391 87.5516C25.6696 88.6211 25.0584 90.7603 25.0584 93.0522C25.0584 96.7193 26.5863 99.6224 28.7255 99.6224C30.8646 99.6224 32.3925 96.8721 32.3925 93.0522C32.3925 90.6075 31.7814 88.6211 30.7118 87.5516C31.7814 86.9404 32.5453 85.718 32.6981 84.3429C34.5317 87.8571 37.4348 92.2882 41.4075 94.1217L42.9354 100.692L15.7379 109.401C14.9739 108.943 12.9876 108.026 10.5429 109.554C7.48696 111.388 4.43106 121.625 4.88944 125.445C5.19503 128.195 1.83354 137.821 0.458385 141.183L0 142.252H123L122.694 141.641ZM96.2609 104.053L80.8286 116.735L66.7714 127.431L50.2696 135.988L40.1851 138.738L46.9081 131.404L46.1441 125.75C48.2832 125.598 53.3255 124.834 54.5478 122.542C56.2286 121.778 61.4236 119.486 62.1876 116.888C63.7155 116.124 68.4522 113.832 68.605 110.776C69.2162 109.554 71.5081 105.276 71.6609 103.442L74.4112 99.3168C74.7168 99.4696 75.1752 99.6224 75.6335 99.6224C77.4671 99.6224 78.995 97.3304 79.1478 94.1217L85.2596 97.7888L96.2609 104.053ZM31.6286 110.012L32.3925 105.734L40.1851 103.289C39.7267 104.359 39.2683 105.887 39.7267 106.957C38.8099 107.721 37.282 109.554 37.4348 111.235C37.4348 111.693 37.5876 112.457 38.3515 113.068C38.046 114.291 37.7404 117.347 39.2683 118.722C39.1155 119.639 38.8099 121.472 39.5739 122.847C39.8795 123.306 40.1851 123.764 40.7963 123.917L36.518 129.265L40.1851 138.28L34.2261 133.848L31.7814 125.75L31.1702 115.666L31.6286 110.012ZM71.9665 85.8708C72.272 86.6348 72.8832 87.246 73.6472 87.7044C72.5776 88.7739 71.9665 90.7603 71.9665 93.205C71.9665 93.6634 71.9665 93.9689 71.9665 94.2745C68.4522 99.7752 68.605 100.845 68.605 101.15C68.605 101.761 67.841 102.831 67.2298 103.595C66.7714 104.206 66.313 104.665 66.313 105.123C66.1602 105.276 65.5491 105.581 65.2435 105.887C63.7155 106.804 61.882 107.873 61.7292 109.248C60.2012 110.012 56.2286 111.999 55.6174 114.291C53.7839 114.749 51.6447 115.513 50.8807 116.583C49.5056 116.124 46.9081 115.36 45.2273 115.971C44.9217 114.902 44.3106 113.527 43.5466 112.916C44.3106 108.179 45.0745 102.525 44.4634 100.998L43.3938 96.1081C44.6162 97.0249 46.6025 97.7888 49.5056 97.7888C50.8807 97.7888 52.5615 97.636 54.5478 97.0249C55.159 97.0249 67.841 95.3441 70.4385 88.1627L71.9665 85.8708ZM73.3416 98.2472L72.5776 99.164C72.272 98.7056 71.8137 98.4 71.3553 98.4C71.3553 98.4 71.3553 98.4 71.2025 98.4C71.5081 97.7888 71.8137 97.1776 72.4248 96.4137C72.5776 96.7193 72.5776 96.8721 72.7304 97.1776C72.7304 97.1776 72.7304 97.3304 72.8832 97.3304C73.036 97.7888 73.036 97.9416 73.3416 98.2472C73.3416 98.2472 73.1888 98.0944 73.3416 98.2472ZM67.841 106.193C68.1466 106.193 68.4522 106.498 68.4522 106.804C68.4522 107.109 68.1466 107.415 67.841 107.415C67.5354 107.415 67.2298 107.109 67.2298 106.804C67.2298 106.498 67.5354 106.193 67.841 106.193ZM69.2161 106.193C69.0634 105.734 68.605 105.429 67.9938 105.429C68.1466 105.276 68.2994 104.97 68.605 104.665C69.3689 103.595 70.4385 102.373 70.2857 101.15C70.2857 101.15 70.2857 100.998 70.2857 100.845C70.5913 101.15 70.8969 101.303 71.2025 101.456L70.1329 102.984V103.137C70.2857 103.595 69.8273 104.817 69.2161 106.193ZM72.1193 100.081L71.9665 100.386C71.8137 100.539 71.6609 100.539 71.5081 100.539C71.2025 100.539 70.8969 100.234 70.8969 99.928C70.8969 99.6224 71.2025 99.3168 71.5081 99.3168C71.8137 99.3168 72.1193 99.6224 72.1193 99.928C72.1193 100.081 72.1193 100.081 72.1193 100.081ZM42.9354 102.373C43.0882 104.053 42.477 109.096 41.713 113.374L41.5602 114.138L42.3242 114.291C42.6298 114.291 43.3938 115.819 43.8522 117.499L44.1578 119.027L45.0745 117.805C45.8385 116.888 48.8944 117.652 50.728 118.416L51.7975 118.875V117.805C51.9503 117.347 54.0894 116.43 56.2286 115.819L56.8398 115.666V115.055C56.8398 113.832 60.2012 111.693 62.4932 110.624L63.1043 110.318L62.9516 109.707C62.7988 109.096 64.9379 107.72 65.8547 107.262C66.0075 107.109 66.1602 107.109 66.313 106.957C66.4658 107.721 67.077 108.179 67.6882 108.179C67.841 108.179 67.9938 108.179 67.9938 108.179C67.6882 108.79 67.3826 109.554 67.077 110.165L66.9242 110.318V110.471C67.077 112.304 63.4099 114.443 61.118 115.513L60.6596 115.666V116.124C60.6596 117.652 56.5342 119.944 53.6311 121.166L53.3255 121.319L53.1727 121.625C52.7143 123.153 48.1304 124.07 45.2273 124.222H44.4634L45.3801 130.64L40.4907 136.14L37.8932 129.876L43.0882 123.306L41.8658 123C41.2547 122.847 40.9491 122.694 40.6435 122.236C40.0323 121.166 40.3379 119.333 40.6435 118.722L40.7963 118.111L40.1851 117.805C39.1155 117.194 39.4211 114.291 39.7267 113.068L39.8795 112.61L39.4211 112.304C38.8099 111.999 38.8099 111.54 38.8099 111.388C38.8099 110.165 40.4907 108.332 41.1019 107.873L41.713 107.262L41.1019 106.651C40.9491 106.498 40.9491 106.193 40.9491 106.04C41.1019 106.04 41.2547 106.193 41.4075 106.193C42.0186 106.193 42.6298 105.734 42.6298 104.97C42.6298 104.359 42.1714 103.901 41.5602 103.901C41.8658 103.289 42.0186 102.984 42.1714 102.678L42.9354 102.373ZM41.4075 104.512C41.5602 104.512 41.713 104.665 41.713 104.817C41.713 104.97 41.5602 105.123 41.4075 105.123C41.2547 105.123 41.1019 104.97 41.1019 104.817C41.1019 104.665 41.1019 104.512 41.2547 104.512C41.2547 104.512 41.2547 104.512 41.4075 104.512ZM77.7727 93.205C77.7727 96.1081 76.7031 98.0944 75.6335 98.0944C75.3279 98.0944 75.1752 97.9416 74.8696 97.7888L74.7168 97.636C74.7168 97.636 74.7168 97.636 74.7168 97.4832C74.564 97.3304 74.4112 97.1776 74.4112 97.0249C74.4112 97.0249 74.4112 97.0249 74.4112 96.8721C74.2584 96.7193 74.2584 96.5665 74.1056 96.2609C74.1056 96.2609 74.1056 96.1081 73.9528 96.1081C73.9528 95.9553 73.8 95.8025 73.8 95.4969C73.8 95.3441 73.8 95.3441 73.8 95.1913C73.8 95.0385 73.8 94.7329 73.6472 94.5801C73.6472 94.1217 73.4944 93.6634 73.4944 93.0522C73.4944 90.1491 74.564 88.1627 75.6335 88.1627C76.7031 88.1627 77.7727 90.4547 77.7727 93.205ZM75.6335 86.7876C74.2584 86.7876 73.3416 85.718 73.3416 84.4957C73.3416 83.2733 74.4112 82.2037 75.6335 82.2037C76.8559 82.2037 77.9255 83.2733 77.9255 84.4957C77.9255 85.718 76.8559 86.7876 75.6335 86.7876ZM77.1615 78.995C77.1615 79.759 76.3975 80.523 75.6335 80.523C74.7168 80.523 74.1056 79.9118 74.1056 78.995C74.1056 78.0783 74.8696 77.4671 75.6335 77.4671C76.5503 77.4671 77.1615 78.0783 77.1615 78.995ZM74.7168 75.0224C74.7168 74.564 75.1752 74.1056 75.6335 74.1056C76.0919 74.1056 76.5503 74.564 76.5503 75.0224C76.5503 75.4807 76.0919 75.9391 75.6335 75.9391C75.1752 75.9391 74.7168 75.4807 74.7168 75.0224ZM69.5217 55.3118C70.2857 53.9367 69.9801 52.7143 69.8273 52.7143C69.6745 52.7143 69.6745 54.0894 68.7578 55.3118H67.2298C67.3826 55.159 67.5354 55.0062 67.6882 54.7006C68.7578 53.1727 68.4522 51.6447 68.1466 51.7975C67.9938 51.7975 67.9938 53.1727 67.077 54.395C66.7714 54.7006 66.6186 55.0062 66.313 55.3118H64.6323C64.7851 55.159 65.0907 54.8534 65.2435 54.7006C66.313 53.1727 66.0075 51.6447 65.7019 51.7975C65.5491 51.7975 65.5491 53.1727 64.6323 54.395C64.3267 54.8534 64.0211 55.159 63.7155 55.4646H62.1876C62.3404 55.3118 62.646 55.0062 62.7988 54.8534C63.8683 53.3255 63.5627 51.7975 63.2571 51.9503C63.1043 51.9503 63.1043 53.3255 62.1876 54.5478C61.882 55.0062 61.5764 55.3118 61.2708 55.6174H48.7416C47.9776 52.8671 46.9081 51.0335 46.7553 51.1863C46.6025 51.3391 47.2137 53.0199 47.8248 55.6174H39.5739C39.2683 55.3118 38.9627 55.0062 38.6571 54.5478C37.7404 53.3255 37.7404 51.9503 37.5876 51.9503C37.4348 51.9503 37.1292 53.4783 38.046 54.8534C38.1988 55.159 38.3516 55.3118 38.6571 55.4646H37.1292C36.9764 55.3118 36.6708 55.0062 36.518 54.7006C35.6012 53.4783 35.6012 52.1031 35.4484 52.1031C35.2957 52.1031 34.9901 53.6311 35.9068 55.0062C36.0596 55.159 36.0596 55.3118 36.2124 55.3118H34.6845C34.5317 55.159 34.2261 54.8534 34.0733 54.5478C33.9205 54.2422 33.6149 53.9366 33.6149 53.6311C34.3789 52.7143 35.2957 51.7975 36.518 50.8807C37.282 50.2696 38.1988 49.8112 38.9627 49.3528C39.4211 49.2 39.7267 49.0472 40.1851 49.0472C40.4907 49.0472 40.9491 48.8944 41.2547 48.8944C41.5602 48.8944 41.8658 48.8944 42.1714 48.8944C42.477 48.8944 42.6298 49.0472 42.7826 49.0472C43.0882 49.0472 43.3938 49.0472 43.3938 49.0472C43.3938 49.0472 43.241 48.8944 42.9354 48.7416C42.7826 48.5888 42.477 48.5888 42.1714 48.436C41.8658 48.436 41.5602 48.2832 41.2547 48.2832C40.9491 48.2832 40.4907 48.2832 40.0323 48.2832C39.5739 48.2832 39.1155 48.436 38.6571 48.5888C37.7404 48.8944 36.8236 49.5056 35.9068 50.1168C34.8373 50.8807 34.0733 51.7975 33.3093 52.7143C33.1565 52.2559 33.1565 52.1031 33.0037 52.1031C32.8509 52.1031 32.6981 52.5615 32.8509 53.3255C32.5453 53.7839 32.2398 54.0894 32.087 54.395C32.087 54.5478 31.9342 54.5478 31.9342 54.7006C31.6286 53.9366 31.6286 53.3255 31.4758 53.3255C31.323 53.3255 31.1702 54.2422 31.6286 55.4646C31.6286 55.4646 31.6286 55.6174 31.4758 55.6174H29.3366C29.4894 55.159 29.6422 54.5478 29.6422 54.0894C29.6422 52.8671 29.1839 51.9503 28.4199 51.1863C29.1839 50.5752 29.6422 49.5056 29.6422 48.2832C29.6422 47.5193 29.3366 46.7553 29.0311 46.1441C29.0311 46.1441 29.0311 46.1441 29.0311 45.9913C29.9478 45.3801 30.7118 44.1578 30.7118 42.7826C30.7118 42.6298 30.7118 42.6298 30.7118 42.477C32.087 41.8658 34.2261 40.6435 34.6845 38.5044C34.6845 38.5044 36.518 32.3925 39.1155 33.3093C41.8658 34.2261 46.2969 33.3093 47.2137 32.5453C47.5193 32.3925 48.1304 32.3925 49.0472 32.6981C48.436 35.9068 49.0472 39.7267 55.7702 39.7267C55.7702 39.7267 50.728 37.7404 52.2559 35.6012C52.5615 35.1429 53.1727 34.6845 53.7839 34.3789C54.5478 36.8236 56.3814 39.4211 61.118 36.9764C61.118 36.9764 56.8398 37.4348 57.1453 35.4485C57.2981 34.9901 57.4509 34.3789 57.9093 33.9205C60.354 34.9901 63.2571 38.1988 66.0075 37.7404C69.5217 36.9764 65.3963 40.1851 69.2161 41.5603C73.036 42.9354 71.9665 48.5888 74.564 49.2C77.3143 49.964 71.6609 51.3391 74.564 54.0894C74.8696 54.395 75.1752 54.7006 75.4807 55.0062C75.4807 55.159 75.3279 55.3118 75.3279 55.4646H69.5217V55.3118ZM62.9516 65.0907C63.2571 64.9379 63.5627 64.7851 64.0211 64.6323C64.9379 64.1739 66.1602 63.4099 67.2298 62.3404C69.3689 60.0484 70.1329 57.6037 70.4385 57.6037C70.5913 57.6037 70.4385 58.2149 69.9801 59.2845C69.5217 60.2012 68.9106 61.5764 67.6882 62.7988C66.6186 64.0211 65.2435 64.7851 64.1739 65.0907C63.7155 65.2435 63.2571 65.3963 62.9516 65.3963C62.646 65.3963 62.4932 65.3963 62.4932 65.3963C62.4932 65.3963 62.646 65.2435 62.9516 65.0907ZM33.6149 54.8534C33.7677 55.0062 33.7677 55.159 33.9205 55.159H32.3925C32.3925 55.159 32.3925 55.0062 32.2397 55.0062C32.3925 54.8534 32.5453 54.7006 32.6981 54.5478C32.8509 54.395 33.0037 54.2422 33.1565 54.0894C33.3093 54.2422 33.4621 54.5478 33.6149 54.8534ZM40.3379 65.0907C40.6435 64.9379 40.9491 64.7851 41.4075 64.6323C42.3242 64.1739 43.5466 63.4099 44.6161 62.3404C46.7553 60.0484 47.5193 57.6037 47.8248 57.6037C47.9776 57.6037 47.8248 58.2149 47.3665 59.2845C46.9081 60.2012 46.2969 61.5764 45.0745 62.7988C44.005 64.0211 42.6298 64.7851 41.5602 65.0907C41.1019 65.2435 40.6435 65.3963 40.3379 65.3963C40.0323 65.3963 39.8795 65.3963 39.8795 65.3963C39.8795 65.3963 40.0323 65.2435 40.3379 65.0907ZM82.2037 17.5714C83.2733 17.5714 84.0373 18.3354 84.0373 19.405C84.0373 20.4745 83.1205 21.2385 82.2037 21.2385C82.0509 21.2385 81.8981 21.2385 81.7453 21.2385L81.1342 21.0857L80.8286 21.6969L80.3702 20.0162C80.3702 19.8634 80.2174 19.7106 80.2174 19.5578C80.2174 18.4882 81.1342 17.5714 82.2037 17.5714ZM76.2447 23.0721L75.7863 24.1416L75.1752 22.6137L76.2447 23.0721ZM75.3279 22.1553L77.3143 21.0857L76.5503 22.6137L75.3279 22.1553ZM76.7031 23.2248L77.7727 23.6832L76.2447 24.2944L76.7031 23.2248ZM76.8559 22.7665L77.6199 21.2385L77.9255 23.3776L76.8559 22.7665ZM65.0907 5.34783C66.1602 5.34783 66.9242 6.1118 66.9242 7.18137C66.9242 7.94534 66.313 8.70932 65.5491 9.01491L64.6323 9.3205L63.8683 8.70932C63.4099 8.40373 63.1043 7.79255 63.1043 7.33416C63.1043 6.2646 64.0211 5.34783 65.0907 5.34783ZM53.6311 1.52795C54.7006 1.52795 55.4646 2.29193 55.4646 3.36149C55.4646 4.12547 55.0062 4.73665 54.2422 5.04224L53.4783 5.34783L52.7143 4.88944C52.1031 4.58385 51.7975 3.97267 51.7975 3.36149C51.6447 2.29193 52.5615 1.52795 53.6311 1.52795ZM19.8634 14.5155H19.2522C18.1826 14.6683 17.2658 13.7516 17.2658 12.682C17.2658 11.6124 18.1826 10.8484 19.0994 10.8484C20.0161 10.8484 20.9329 11.6124 20.9329 12.682C20.9329 13.5988 20.4745 14.2099 19.8634 14.5155ZM23.2248 17.4186C24.6 17.2658 25.9752 16.1963 27.0447 14.3627C28.5727 11.918 29.795 9.47329 30.4062 7.33416L30.7118 6.41739L29.795 6.2646C28.8783 6.1118 28.2671 5.34783 28.2671 4.43106C28.2671 3.36149 29.1839 2.59752 30.1006 2.59752C31.0174 2.59752 31.9342 3.36149 31.9342 4.43106C31.9342 4.88944 31.7814 5.34783 31.4758 5.65342L30.8646 6.2646L31.6286 6.72298C33.0037 7.79255 35.9068 9.1677 39.4211 6.41739L40.1851 5.80621L39.4211 5.19503C38.9627 4.88944 38.6571 4.27826 38.6571 3.81988C38.6571 2.75031 39.5739 1.98634 40.4907 1.98634C41.4075 1.98634 42.3242 2.75031 42.3242 3.81988C42.3242 4.27826 42.1714 4.73665 41.713 5.19503L40.9491 5.95901L41.8658 6.41739C44.005 7.48696 48.1304 8.86211 52.4087 6.1118L53.1727 5.65342L53.7839 6.2646C55.7702 8.09814 59.4373 11.0012 63.2571 9.93168L64.3267 9.62609L64.9379 10.2373C66.4658 11.918 69.5217 14.5155 73.3416 14.0571L74.7168 13.9043L74.1056 12.8348C73.8 12.5292 73.6472 12.0708 73.6472 11.7652C73.6472 10.6957 74.564 9.93168 75.4807 9.93168C76.3975 9.93168 77.3143 10.6957 77.3143 11.7652C77.3143 12.5292 76.7031 13.2932 75.9391 13.5988L75.1752 13.7516L75.3279 14.5155C75.6335 16.1963 76.3975 18.3354 77.7727 19.8634L74.1056 21.8497L75.3279 25.364L78.8422 24.1416L78.2311 20.3217C78.5366 20.6273 78.8422 20.7801 79.1478 20.9329L80.6758 21.8497L78.3838 26.7391C77.0087 25.8224 75.0224 25.2112 72.5776 25.0584C70.5913 23.9888 59.1317 17.4186 54.5478 18.9466C51.9503 19.8634 47.3665 19.8634 43.6994 19.8634C40.6435 19.8634 38.9627 19.8634 38.046 20.3217C36.2124 20.9329 31.323 22.1553 31.1702 22.1553L22.6137 25.0584L20.4745 16.5019C21.3913 17.2658 22.3081 17.4186 23.2248 17.4186ZM27.5031 75.0224C27.5031 74.564 27.9615 74.1056 28.4199 74.1056C28.8783 74.1056 29.3366 74.564 29.3366 75.0224C29.3366 75.4807 28.8783 75.9391 28.4199 75.9391C27.9615 75.9391 27.5031 75.4807 27.5031 75.0224ZM28.4199 77.4671C29.3366 77.4671 29.9478 78.0783 29.9478 78.995C29.9478 79.9118 29.1839 80.523 28.4199 80.523C27.6559 80.523 26.8919 79.9118 26.8919 78.995C26.8919 78.0783 27.6559 77.4671 28.4199 77.4671ZM30.559 93.205C30.559 96.1081 29.4894 98.2472 28.4199 98.2472C27.5031 98.2472 26.2807 96.1081 26.2807 93.205C26.2807 90.3019 27.3503 88.1627 28.4199 88.1627C29.4894 88.3155 30.559 90.4547 30.559 93.205ZM28.4199 86.7876C27.0447 86.7876 26.128 85.718 26.128 84.4957C26.128 83.2733 27.1975 82.2037 28.4199 82.2037C29.6422 82.2037 30.7118 83.2733 30.7118 84.4957C30.7118 85.718 29.795 86.7876 28.4199 86.7876ZM30.559 81.1342C30.7118 81.1342 30.7118 80.9814 30.8646 80.9814C30.8646 81.1342 31.0174 81.287 31.0174 81.5926C30.8646 81.4398 30.7118 81.287 30.559 81.1342ZM31.4758 78.6894C31.4758 77.7727 31.0174 77.0087 30.2534 76.5503C30.559 76.0919 30.8646 75.6335 30.8646 75.0224C30.8646 73.8 29.9478 72.7304 28.7255 72.5776C28.2671 68.9106 27.5031 63.4099 26.128 62.3404C26.128 62.3404 28.4199 61.5764 27.5031 56.9925C27.8087 56.8398 28.1143 56.687 28.4199 56.5342H29.1839V56.687C29.1839 62.3404 33.6149 67.077 39.2683 67.077C43.8522 67.077 47.5193 64.0211 48.8944 59.7429C49.0472 61.2708 49.2 62.7988 49.0472 63.8683C49.0472 65.2435 48.8944 66.1603 49.0472 66.1603C49.2 66.1603 49.5056 65.3963 49.6584 63.8683C49.8112 62.4932 49.964 60.354 49.5056 58.2149C49.3528 57.6037 49.3528 56.9926 49.2 56.5342H52.1031V56.687C52.1031 62.3404 56.5342 67.077 62.1876 67.077C67.6882 67.077 72.272 62.4932 72.272 56.687V56.5342H75.1752C75.328 57.7565 75.9391 58.8261 76.8559 59.4373C76.5503 59.8957 76.3975 60.5068 76.3975 61.118C76.3975 62.646 77.1615 64.0211 78.2311 64.4795V64.7851C77.6199 65.3963 77.3143 66.313 77.3143 67.3826C77.3143 68.2994 77.6199 69.0634 78.0783 69.6745L77.1615 73.036C76.7031 72.7304 76.2447 72.5776 75.6335 72.5776C74.2584 72.5776 73.1888 73.6472 73.1888 75.0224C73.1888 75.6335 73.3416 76.0919 73.8 76.5503C73.036 77.1615 72.5776 77.9255 72.5776 78.995C72.5776 79.9118 73.036 80.6758 73.6472 81.287C72.7304 81.8981 72.1193 82.8149 71.8137 83.8845L68.9106 87.7044L68.7578 87.8571C66.4658 94.1217 54.0894 95.8025 53.9366 95.8025C45.0745 98.0944 42.6298 93.6634 42.477 93.5106L42.3242 93.205L42.0186 93.0522C35.4484 90.3019 31.7814 79.3006 31.4758 78.6894ZM1.83354 140.877C3.0559 137.668 6.41739 128.501 5.95901 125.445C5.50062 121.93 8.55652 112.457 11.0012 111.082C13.2932 109.707 14.8211 110.929 14.8211 110.929L14.9739 111.082C14.3627 112.916 13.1404 117.805 12.5292 123.917C12.0708 127.737 12.0708 131.251 12.3764 133.696C12.5292 134.918 12.8348 135.988 13.1404 136.599C13.446 137.21 13.5988 137.516 13.7516 137.516C13.9043 137.363 13.2932 135.988 13.2932 133.543C13.1404 131.098 13.446 127.737 13.7516 123.917C14.3627 117.958 15.2795 112.916 15.4323 111.082L30.7118 106.193L30.1006 109.86L29.4894 116.124L30.1006 126.361L32.6981 135.224L39.7267 140.419L50.8807 137.363L67.6882 128.653L81.8981 117.958L97.7888 104.97L99.928 106.193L106.498 110.165C106.957 110.776 109.554 113.374 114.291 113.985C112.763 115.207 109.401 119.027 106.651 124.375C104.97 127.737 103.901 131.098 103.442 133.696C103.289 134.307 103.289 134.918 103.289 135.376C103.289 135.835 103.289 136.293 103.289 136.599C103.289 137.363 103.442 137.668 103.442 137.668C103.442 137.668 103.748 137.363 103.901 136.599C104.053 136.293 104.053 135.835 104.206 135.376C104.359 134.918 104.512 134.46 104.665 133.848C105.429 131.557 106.498 128.501 108.179 125.139C111.082 119.639 114.138 115.36 114.902 113.985C115.207 113.985 115.513 113.985 115.819 114.138C119.333 114.291 121.166 129.723 121.319 141.183H1.83354V140.877Z" fill="black"/>
<path d="M43.0882 129.876V130.181C42.7826 130.793 42.477 131.251 42.1714 131.709C41.8658 132.168 41.5602 132.626 41.4074 133.084C40.9491 133.848 40.7963 134.307 40.7963 134.307C40.7963 134.307 41.2546 134.001 41.713 133.237C42.0186 132.932 42.3242 132.473 42.6298 132.015C42.9354 131.557 43.3938 130.945 43.8522 130.334C43.8522 130.181 43.8522 130.029 43.8522 129.723C43.8522 126.82 43.6994 124.375 43.5466 124.375C43.241 124.528 43.0882 126.973 43.0882 129.876Z" fill="black"/>
<path d="M39.8795 129.876L40.0323 129.57C40.949 128.195 41.5602 126.973 41.4074 126.82C41.2546 126.667 40.4906 127.737 39.5739 129.265C39.4211 129.57 39.2683 129.876 39.1155 130.029C39.2683 130.181 39.2683 130.334 39.4211 130.64C39.4211 130.793 39.5739 130.945 39.5739 130.945C39.7267 131.098 39.8795 131.404 40.0323 131.557C40.185 131.862 40.4906 132.015 40.4906 132.015C40.4906 132.015 40.4906 131.709 40.3378 131.404C40.3378 131.251 40.185 130.945 40.0323 130.793C40.0323 130.64 39.8795 130.487 39.8795 130.334C39.8795 130.181 39.7267 130.029 39.7267 130.029L39.8795 129.876Z" fill="black"/>
<path d="M65.549 110.012C66.0074 110.012 66.313 109.707 66.313 109.248C66.313 108.79 66.0074 108.484 65.549 108.484C65.0907 108.484 64.7851 108.79 64.7851 109.248C64.7851 109.554 65.0907 110.012 65.549 110.012ZM65.549 108.79C65.7018 108.79 65.8546 108.943 65.8546 109.096C65.8546 109.248 65.7018 109.401 65.549 109.401C65.3962 109.401 65.2434 109.248 65.2434 109.096C65.2434 108.943 65.3962 108.79 65.549 108.79Z" fill="black"/>
<path d="M62.4932 113.985C62.9515 113.985 63.2571 113.832 63.5627 113.68C63.8683 113.374 64.1739 113.068 64.3267 112.61C64.3267 112.304 64.3267 111.846 64.1739 111.693C64.0211 111.388 63.5627 111.235 63.1043 111.235C62.7987 111.235 62.3404 111.388 62.0348 111.54C61.2708 111.999 61.118 113.068 61.5764 113.68C61.7292 113.68 62.0348 113.832 62.4932 113.985ZM62.3404 111.999C62.4932 111.846 62.7987 111.846 62.9515 111.846C63.1043 111.846 63.2571 111.999 63.4099 111.999C63.5627 112.152 63.5627 112.304 63.5627 112.457C63.5627 112.763 63.4099 112.916 63.1043 113.068C62.9515 113.221 62.646 113.221 62.4932 113.221C62.3404 113.221 62.1876 113.068 62.0348 113.068C61.882 112.763 61.882 112.152 62.3404 111.999Z" fill="black"/>
<path d="M55.0062 119.791H55.159C55.6174 119.791 55.923 119.639 56.3814 119.486C56.8397 119.18 57.1453 118.875 57.2981 118.416C57.4509 117.958 57.4509 117.499 57.2981 117.041C57.1453 116.583 56.687 116.43 56.0758 116.277C55.6174 116.277 55.159 116.277 54.7006 116.583C54.2422 116.888 53.9366 117.194 53.7838 117.652C53.6311 118.111 53.6311 118.569 53.7838 119.027C53.9366 119.486 54.5478 119.639 55.0062 119.791ZM54.8534 118.111C55.0062 117.958 55.159 117.805 55.3118 117.652C55.4646 117.499 55.7702 117.499 55.923 117.499C55.923 117.499 55.923 117.499 56.0758 117.499C56.0758 117.499 56.3814 117.499 56.3814 117.652C56.3814 117.805 56.3814 117.958 56.3814 117.958C56.2286 118.111 56.0758 118.263 55.923 118.416C55.7702 118.569 55.4646 118.569 55.159 118.569C55.159 118.569 54.8534 118.569 54.8534 118.416C54.8534 118.263 54.8534 118.263 54.8534 118.111Z" fill="black"/>
<path d="M46.7553 122.694C48.2833 122.694 49.5056 121.93 49.5056 120.861C49.5056 119.791 48.2833 119.027 46.7553 119.027C45.2274 119.027 44.005 119.791 44.005 120.861C44.005 121.93 45.2274 122.694 46.7553 122.694ZM46.7553 119.791C47.8249 119.791 48.7417 120.402 48.7417 120.861C48.7417 121.319 47.9777 121.93 46.7553 121.93C45.533 121.93 44.769 121.319 44.769 120.861C44.769 120.402 45.533 119.791 46.7553 119.791Z" fill="black"/>
<path d="M40.9491 119.333C40.9491 120.097 41.5603 120.708 42.477 120.708C43.3938 120.708 44.005 120.097 44.005 119.333C44.005 118.569 43.3938 117.958 42.477 117.958C41.5603 117.958 40.9491 118.569 40.9491 119.333ZM42.477 118.722C42.7826 118.722 43.0882 119.027 43.0882 119.333C43.0882 119.639 42.7826 119.944 42.477 119.944C42.1715 119.944 41.8659 119.639 41.8659 119.333C41.8659 119.027 42.0187 118.722 42.477 118.722Z" fill="black"/>
<path d="M51.1863 121.625C51.9503 121.625 52.7143 121.014 52.7143 120.25C52.7143 119.486 52.1031 118.875 51.1863 118.875C50.2695 118.875 49.6584 119.486 49.6584 120.25C49.6584 121.014 50.4223 121.625 51.1863 121.625ZM51.1863 119.486C51.4919 119.486 51.7975 119.791 51.7975 120.097C51.7975 120.402 51.4919 120.708 51.1863 120.708C50.8807 120.708 50.5751 120.402 50.5751 120.097C50.5751 119.791 50.8807 119.486 51.1863 119.486Z" fill="black"/>
<path d="M58.9788 116.277C59.7428 116.277 60.5068 115.666 60.5068 114.902C60.5068 114.138 59.8956 113.527 58.9788 113.527C58.2149 113.527 57.4509 114.138 57.4509 114.902C57.6037 115.666 58.2149 116.277 58.9788 116.277ZM58.9788 114.138C59.2844 114.138 59.59 114.443 59.59 114.749C59.59 115.055 59.4372 115.36 58.9788 115.36C58.5205 115.36 58.3677 115.055 58.3677 114.749C58.3677 114.443 58.6733 114.138 58.9788 114.138Z" fill="black"/>
<path d="M40.6434 109.86C40.0323 109.86 39.4211 110.318 39.4211 111.082C39.4211 111.846 39.8795 112.304 40.6434 112.304C41.2546 112.304 41.8658 111.846 41.8658 111.082C41.8658 110.318 41.2546 109.86 40.6434 109.86ZM40.6434 111.235C40.4906 111.235 40.3379 111.082 40.3379 110.929C40.3379 110.776 40.4906 110.624 40.6434 110.624C40.7962 110.624 40.949 110.776 40.949 110.929C40.949 111.082 40.7962 111.235 40.6434 111.235Z" fill="black"/>
<path d="M39.8795 115.819C39.8795 116.43 40.3378 117.041 41.1018 117.041C41.713 117.041 42.3242 116.583 42.3242 115.819C42.3242 115.055 41.8658 114.596 41.1018 114.596C40.4906 114.749 39.8795 115.207 39.8795 115.819ZM41.5602 115.819C41.5602 115.971 41.4074 116.124 41.2546 116.124C41.1018 116.124 40.949 115.971 40.949 115.819C40.949 115.666 41.1018 115.513 41.2546 115.513C41.2546 115.513 41.5602 115.666 41.5602 115.819Z" fill="black"/>
<path d="M41.4074 131.557C41.5602 131.557 42.0186 130.487 42.3242 129.265C42.6298 128.042 42.7826 126.82 42.477 126.82C42.3242 126.82 41.8658 127.889 41.5602 129.112C41.2546 130.334 41.2546 131.557 41.4074 131.557Z" fill="black"/>
<path d="M75.7863 93.0522C76.3975 93.0522 76.8559 92.2882 76.8559 91.3714C76.8559 90.4546 76.3975 89.6907 75.7863 89.6907C75.1751 89.6907 74.7168 90.4546 74.7168 91.3714C74.7168 92.2882 75.1751 93.0522 75.7863 93.0522ZM75.7863 90.1491C76.0919 90.1491 76.5503 90.7602 76.5503 91.3714C76.5503 91.9826 76.2447 92.5938 75.7863 92.5938C75.4807 92.5938 75.0224 92.1354 75.0224 91.3714C75.0224 90.6074 75.4807 90.1491 75.7863 90.1491Z" fill="black"/>
<path d="M28.4198 93.5106C29.031 93.5106 29.3366 92.5938 29.3366 91.677C29.3366 90.7602 29.031 89.8435 28.4198 89.8435C27.8086 89.8435 27.5031 90.7602 27.5031 91.677C27.5031 92.5938 27.8086 93.5106 28.4198 93.5106ZM28.4198 89.9963C28.5726 89.9963 28.8782 90.6075 28.8782 91.5242C28.8782 92.441 28.5726 93.0522 28.4198 93.0522C28.267 93.0522 27.9614 92.441 27.9614 91.5242C27.9614 90.6075 28.267 89.9963 28.4198 89.9963Z" fill="black"/>
<path d="M29.1839 82.6621C28.5727 82.6621 28.2671 83.1205 28.2671 83.5789C28.2671 84.0373 28.7255 84.4957 29.1839 84.4957C29.6422 84.4957 30.1006 84.0373 30.1006 83.5789C30.2534 83.1205 29.795 82.6621 29.1839 82.6621ZM29.1839 84.1901C28.8783 84.1901 28.5727 83.8845 28.5727 83.5789C28.5727 83.2733 28.8783 82.9677 29.1839 82.9677C29.4895 82.9677 29.795 83.2733 29.795 83.5789C29.795 83.8845 29.4895 84.1901 29.1839 84.1901Z" fill="black"/>
<path d="M76.5503 82.6621C75.9391 82.6621 75.6335 83.1205 75.6335 83.5789C75.6335 84.0373 76.0919 84.4957 76.5503 84.4957C77.0087 84.4957 77.4671 84.0373 77.4671 83.5789C77.4671 83.1205 77.1615 82.6621 76.5503 82.6621ZM76.5503 84.1901C76.2447 84.1901 75.9391 83.8845 75.9391 83.5789C75.9391 83.2733 76.2447 82.9677 76.5503 82.9677C76.8559 82.9677 77.1615 83.2733 77.1615 83.5789C77.1615 83.8845 76.8559 84.1901 76.5503 84.1901Z" fill="black"/>
<path d="M31.4757 4.27826C31.4757 3.81988 31.1701 3.51429 30.7117 3.51429C30.2533 3.51429 29.9478 3.81988 29.9478 4.27826C29.9478 4.73665 30.2533 5.04224 30.7117 5.04224C31.1701 5.04224 31.4757 4.58386 31.4757 4.27826ZM30.7117 4.58385C30.5589 4.58385 30.4061 4.43106 30.4061 4.27826C30.4061 4.12547 30.5589 3.81988 30.7117 3.81988C30.8645 3.81988 31.0173 3.97267 31.0173 4.12547C31.0173 4.27826 30.8645 4.58385 30.7117 4.58385Z" fill="black"/>
<path d="M18.7938 11.6124C18.3354 11.6124 18.0298 11.918 18.0298 12.3764C18.0298 12.8348 18.3354 13.1404 18.7938 13.1404C19.2522 13.1404 19.5578 12.8348 19.5578 12.3764C19.5578 11.918 19.0994 11.6124 18.7938 11.6124ZM18.7938 12.682C18.641 12.682 18.4882 12.5292 18.4882 12.3764C18.4882 12.2236 18.641 12.0708 18.7938 12.0708C18.9466 12.0708 19.0994 12.2236 19.0994 12.3764C19.0994 12.5292 18.9466 12.682 18.7938 12.682Z" fill="black"/>
<path d="M40.9491 4.73665C41.4074 4.73665 41.8658 4.27827 41.8658 3.81988C41.8658 3.3615 41.4074 2.90311 40.9491 2.90311C40.4907 2.90311 40.0323 3.3615 40.0323 3.81988C40.0323 4.27827 40.4907 4.73665 40.9491 4.73665ZM40.9491 3.2087C41.2546 3.2087 41.5602 3.51429 41.5602 3.66709C41.5602 3.81988 41.2546 4.12547 40.9491 4.12547C40.6435 4.12547 40.3379 3.81988 40.3379 3.66709C40.3379 3.51429 40.6435 3.2087 40.9491 3.2087Z" fill="black"/>
<path d="M54.0894 3.97267C54.5478 3.97267 55.0062 3.51428 55.0062 3.0559C55.0062 2.59751 54.5478 2.13913 54.0894 2.13913C53.6311 2.13913 53.1727 2.59751 53.1727 3.0559C53.1727 3.51428 53.6311 3.97267 54.0894 3.97267ZM54.0894 2.44472C54.395 2.44472 54.7006 2.75031 54.7006 2.9031C54.7006 3.0559 54.395 3.36149 54.0894 3.36149C53.7839 3.36149 53.4783 3.0559 53.4783 2.9031C53.4783 2.75031 53.7839 2.44472 54.0894 2.44472Z" fill="black"/>
<path d="M82.051 20.3217C82.5093 20.3217 82.9677 19.8634 82.9677 19.405C82.9677 18.9466 82.5093 18.4882 82.051 18.4882C81.5926 18.4882 81.1342 18.9466 81.1342 19.405C81.1342 19.8634 81.5926 20.3217 82.051 20.3217ZM82.051 18.9466C82.3565 18.9466 82.6621 19.2522 82.6621 19.405C82.6621 19.5578 82.3565 19.8634 82.051 19.8634C81.7454 19.8634 81.4398 19.5578 81.4398 19.405C81.4398 19.2522 81.7454 18.9466 82.051 18.9466Z" fill="black"/>
<path d="M76.2447 12.682C76.7031 12.682 77.1615 12.2236 77.1615 11.7652C77.1615 11.3068 76.7031 10.8484 76.2447 10.8484C75.7863 10.8484 75.3279 11.3068 75.3279 11.7652C75.3279 12.2236 75.6335 12.682 76.2447 12.682ZM76.2447 11.3068C76.5503 11.3068 76.8559 11.6124 76.8559 11.7652C76.8559 11.918 76.5503 12.2236 76.2447 12.2236C75.9391 12.2236 75.6335 12.0708 75.6335 11.7652C75.6335 11.4596 75.9391 11.3068 76.2447 11.3068Z" fill="black"/>
<path d="M65.2435 7.79255C65.7019 7.79255 66.1603 7.33416 66.1603 6.87578C66.1603 6.41739 65.7019 5.95901 65.2435 5.95901C64.7851 5.95901 64.3267 6.41739 64.3267 6.87578C64.3267 7.33416 64.7851 7.79255 65.2435 7.79255ZM65.2435 6.41739C65.5491 6.41739 65.8547 6.72298 65.8547 6.87578C65.8547 7.02857 65.5491 7.33416 65.2435 7.33416C64.9379 7.33416 64.6323 7.18137 64.6323 6.87578C64.6323 6.57019 64.9379 6.41739 65.2435 6.41739Z" fill="black"/>
<path d="M97.9416 107.873C96.7193 107.873 95.8025 108.484 95.8025 109.248C95.8025 110.012 96.7193 110.624 97.9416 110.624C99.164 110.624 100.081 110.012 100.081 109.248C100.081 108.484 99.164 107.873 97.9416 107.873ZM97.9416 109.86C97.1776 109.86 96.5665 109.554 96.5665 109.248C96.5665 108.943 97.1776 108.637 97.9416 108.637C98.7056 108.637 99.3168 108.943 99.3168 109.248C99.3168 109.554 98.7056 109.86 97.9416 109.86Z" fill="black"/>
<path d="M92.441 112.916C90.9131 112.916 89.6907 113.679 89.6907 114.749C89.6907 115.819 90.9131 116.583 92.441 116.583C93.969 116.583 95.1913 115.819 95.1913 114.749C95.1913 113.679 93.969 112.916 92.441 112.916ZM92.441 115.666C91.2187 115.666 90.4547 115.207 90.4547 114.596C90.4547 113.985 91.2187 113.527 92.441 113.527C93.6634 113.527 94.4274 113.985 94.4274 114.596C94.4274 115.207 93.6634 115.666 92.441 115.666Z" fill="black"/>
<path d="M86.3292 117.958C84.8012 117.958 83.7317 118.875 83.7317 119.944C83.7317 121.014 84.954 121.93 86.3292 121.93C87.7043 121.93 88.9267 121.014 88.9267 119.944C88.9267 118.875 87.8571 117.958 86.3292 117.958ZM86.3292 121.166C85.2596 121.166 84.4956 120.555 84.4956 119.944C84.4956 119.333 85.4124 118.722 86.3292 118.722C87.2459 118.722 88.1627 119.333 88.1627 119.944C88.1627 120.555 87.3987 121.166 86.3292 121.166Z" fill="black"/>
<path d="M78.8422 124.222C77.4671 124.222 76.3975 124.834 76.3975 125.75C76.3975 126.667 77.4671 127.278 78.8422 127.278C80.2174 127.278 81.287 126.667 81.287 125.75C81.287 124.834 80.2174 124.222 78.8422 124.222ZM78.8422 126.362C77.7727 126.362 77.1615 125.903 77.1615 125.598C77.1615 125.292 77.7727 124.834 78.8422 124.834C79.9118 124.834 80.523 125.292 80.523 125.598C80.523 126.056 79.759 126.362 78.8422 126.362Z" fill="black"/>
<path d="M70.8969 129.112C69.6745 129.112 68.6049 129.876 68.6049 130.793C68.6049 131.709 69.6745 132.473 70.8969 132.473C72.1192 132.473 73.1888 131.709 73.1888 130.793C73.1888 129.876 72.1192 129.112 70.8969 129.112ZM70.8969 131.557C69.9801 131.557 69.3689 131.098 69.3689 130.64C69.3689 130.181 69.9801 129.723 70.8969 129.723C71.8136 129.723 72.4248 130.181 72.4248 130.64C72.4248 131.098 71.8136 131.557 70.8969 131.557Z" fill="black"/>
<path d="M62.9516 132.779C61.882 132.779 60.9653 133.696 60.9653 134.765C60.9653 135.835 61.882 136.752 62.9516 136.752C64.0212 136.752 64.9379 135.835 64.9379 134.765C64.9379 133.696 64.0212 132.779 62.9516 132.779ZM62.9516 135.988C62.3404 135.988 61.7292 135.529 61.7292 134.765C61.7292 134.154 62.3404 133.543 62.9516 133.543C63.5628 133.543 64.174 134.001 64.174 134.765C64.174 135.376 63.5628 135.988 62.9516 135.988Z" fill="black"/>
<path d="M56.687 135.988C55.3118 135.988 54.2422 136.599 54.2422 137.363C54.2422 138.127 55.3118 138.738 56.687 138.738C58.0621 138.738 59.1317 138.127 59.1317 137.363C59.1317 136.599 58.0621 135.988 56.687 135.988ZM56.687 137.974C55.6174 137.974 55.0062 137.516 55.0062 137.363C55.0062 137.21 55.6174 136.752 56.687 136.752C57.7565 136.752 58.3677 137.21 58.3677 137.363C58.3677 137.516 57.7565 137.974 56.687 137.974Z" fill="black"/>
<path d="M50.4224 137.974C49.8112 137.974 49.2 138.432 49.2 139.196C49.2 139.96 49.6584 140.419 50.4224 140.419C51.0336 140.419 51.6448 139.96 51.6448 139.196C51.6448 138.432 51.0336 137.974 50.4224 137.974ZM50.4224 139.655C50.2696 139.655 49.964 139.502 49.964 139.196C49.964 139.043 50.1168 138.738 50.4224 138.738C50.5752 138.738 50.8808 138.891 50.8808 139.196C50.8808 139.349 50.5752 139.655 50.4224 139.655Z" fill="black"/>
<path d="M26.5863 112.152C27.503 112.152 28.267 111.388 28.267 110.471C28.267 109.554 27.503 108.79 26.5863 108.79C25.6695 108.79 24.9055 109.554 24.9055 110.471C24.9055 111.388 25.6695 112.152 26.5863 112.152ZM26.5863 109.554C27.0446 109.554 27.503 110.012 27.503 110.471C27.503 110.929 27.0446 111.388 26.5863 111.388C26.1279 111.388 25.6695 110.929 25.6695 110.471C25.6695 110.012 26.1279 109.554 26.5863 109.554Z" fill="black"/>
<path d="M30.1006 130.181C30.1006 129.265 29.3367 128.501 28.4199 128.501C27.5031 128.501 26.7391 129.265 26.7391 130.181C26.7391 131.098 27.5031 131.862 28.4199 131.862C29.3367 131.862 30.1006 131.098 30.1006 130.181ZM28.4199 131.098C27.9615 131.098 27.5031 130.64 27.5031 130.181C27.5031 129.723 27.9615 129.265 28.4199 129.265C28.8783 129.265 29.3367 129.723 29.3367 130.181C29.3367 130.64 29.0311 131.098 28.4199 131.098Z" fill="black"/>
<path d="M28.7255 115.055C28.7255 114.443 27.9615 113.832 26.7391 113.832C25.5168 113.832 24.7528 114.291 24.7528 115.055C24.7528 115.819 25.5168 116.277 26.7391 116.277C27.9615 116.277 28.7255 115.819 28.7255 115.055ZM25.6696 115.055C25.6696 114.902 26.128 114.596 26.8919 114.596C27.6559 114.596 28.1143 114.902 28.1143 115.055C28.1143 115.207 27.6559 115.513 26.8919 115.513C26.128 115.513 25.6696 115.207 25.6696 115.055Z" fill="black"/>
<path d="M27.9615 126.056C28.8783 126.056 29.4894 124.986 29.4894 123.611C29.4894 122.236 28.7255 121.166 27.9615 121.166C27.1975 121.166 26.4335 122.236 26.4335 123.611C26.4335 124.986 27.0447 126.056 27.9615 126.056ZM27.9615 122.083C28.4199 122.083 28.7255 122.847 28.7255 123.764C28.7255 124.681 28.2671 125.445 27.9615 125.445C27.6559 125.445 27.1975 124.681 27.1975 123.764C27.1975 122.847 27.6559 122.083 27.9615 122.083Z" fill="black"/>
<path d="M30.7118 134.307C29.7951 134.307 28.8783 135.071 28.8783 136.14C28.8783 137.057 29.6423 137.974 30.7118 137.974C31.7814 137.974 32.5454 137.21 32.5454 136.14C32.3926 135.224 31.6286 134.307 30.7118 134.307ZM30.7118 137.057C30.1007 137.057 29.6423 136.599 29.6423 135.988C29.6423 135.376 30.1007 134.918 30.7118 134.918C31.323 134.918 31.7814 135.376 31.7814 135.988C31.6286 136.752 31.1702 137.057 30.7118 137.057Z" fill="black"/>
<path d="M35.4485 137.974C34.8373 137.974 34.2261 138.432 34.2261 139.196C34.2261 139.96 34.6845 140.419 35.4485 140.419C36.0597 140.419 36.6709 139.96 36.6709 139.196C36.6709 138.432 36.0597 137.974 35.4485 137.974ZM35.4485 139.655C35.2957 139.655 34.9901 139.502 34.9901 139.196C34.9901 139.043 35.1429 138.738 35.4485 138.738C35.6013 138.738 35.9069 138.891 35.9069 139.196C35.9069 139.349 35.6013 139.655 35.4485 139.655Z" fill="black"/>
<path d="M51.0335 103.595C50.7279 103.442 50.4224 103.289 50.2696 102.984C49.8112 102.525 49.5056 101.914 49.3528 101.303C49.0472 100.234 48.8944 99.4696 48.7416 99.4696C48.5888 99.4696 48.2832 100.234 48.436 101.456C48.5888 102.067 48.7416 102.831 49.3528 103.595C49.6584 103.901 50.1168 104.206 50.4224 104.512C50.5752 104.665 50.8807 104.97 51.0335 105.276C51.6447 106.651 51.4919 108.484 51.6447 109.554C51.6447 110.776 51.6447 111.54 51.7975 111.54C51.9503 111.54 52.2559 110.929 52.5615 109.707C52.7143 109.096 52.7143 108.332 52.7143 107.568C52.7143 106.804 52.7143 105.734 52.2559 104.817C51.7975 104.359 51.4919 103.901 51.0335 103.595Z" fill="black"/>
</svg>
