<svg width="19" height="22" viewBox="0 0 19 22" fill="none" xmlns="http://www.w3.org/2000/svg">
<path d="M7.67125 21.9764C8.8825 20.7738 8.90625 18.4159 8.90625 18.4159C8.90625 18.4159 7.7425 19.5713 4.96375 19.5713C2.185 19.5713 0 17.8499 0 15.3033C0 12.7567 1.78125 11.6249 4.8925 8.55949C8.00375 5.47053 9.5 1.50911 9.5 0C9.5 1.53269 10.9963 5.47053 14.1075 8.55949C17.2188 11.6484 19 12.7567 19 15.3033C19 17.8499 16.815 19.5949 14.0362 19.5949C11.2575 19.5949 10.0937 18.4394 10.0937 18.4394C10.0937 18.4394 10.1413 20.7974 11.3288 22H7.67125V21.9764Z" fill="black"/>
</svg>
